<svg xmlns="http://www.w3.org/2000/svg" width="900" height="420" viewBox="0 0 900 420">
<rect x="0" y="0" width="100%" height="100%" fill="#ffffff"/>
<style>text{font-family: ui-sans-serif, system-ui, -apple-system, Segoe UI, Roboto, Helvetica, Arial; fill:#111}</style>
<defs>
  <marker id="arrowhead" markerWidth="10" markerHeight="7" refX="9" refY="3.5" orient="auto">
    <polygon points="0 0, 10 3.5, 0 7" fill="#333" />
  </marker>
</defs>
<text x="450.0" y="28" text-anchor="middle" font-size="16">Week 4: PC1 distribution (drifted)</text>
<line x1="70" y1="360" x2="880" y2="360" stroke="#333"/>
<line x1="70" y1="55" x2="70" y2="360" stroke="#333"/>
<rect x="70" y="356.823" width="27.929" height="3.177" fill="#41b6c4" opacity="0.9"/>
<rect x="98.929" y="360" width="27.929" height="0" fill="#41b6c4" opacity="0.9"/>
<rect x="127.857" y="360" width="27.929" height="0" fill="#41b6c4" opacity="0.9"/>
<rect x="156.786" y="360" width="27.929" height="0" fill="#41b6c4" opacity="0.9"/>
<rect x="185.714" y="360" width="27.929" height="0" fill="#41b6c4" opacity="0.9"/>
<rect x="214.643" y="356.823" width="27.929" height="3.177" fill="#41b6c4" opacity="0.9"/>
<rect x="243.571" y="347.292" width="27.929" height="12.708" fill="#41b6c4" opacity="0.9"/>
<rect x="272.5" y="350.469" width="27.929" height="9.531" fill="#41b6c4" opacity="0.9"/>
<rect x="301.429" y="321.875" width="27.929" height="38.125" fill="#41b6c4" opacity="0.9"/>
<rect x="330.357" y="309.167" width="27.929" height="50.833" fill="#41b6c4" opacity="0.9"/>
<rect x="359.286" y="277.396" width="27.929" height="82.604" fill="#41b6c4" opacity="0.9"/>
<rect x="388.214" y="217.031" width="27.929" height="142.969" fill="#41b6c4" opacity="0.9"/>
<rect x="417.143" y="150.312" width="27.929" height="209.688" fill="#41b6c4" opacity="0.9"/>
<rect x="446.071" y="99.479" width="27.929" height="260.521" fill="#41b6c4" opacity="0.9"/>
<rect x="475" y="67.708" width="27.929" height="292.292" fill="#41b6c4" opacity="0.9"/>
<rect x="503.929" y="55" width="27.929" height="305" fill="#41b6c4" opacity="0.9"/>
<rect x="532.857" y="93.125" width="27.929" height="266.875" fill="#41b6c4" opacity="0.9"/>
<rect x="561.786" y="61.354" width="27.929" height="298.646" fill="#41b6c4" opacity="0.9"/>
<rect x="590.714" y="153.49" width="27.929" height="206.51" fill="#41b6c4" opacity="0.9"/>
<rect x="619.643" y="226.562" width="27.929" height="133.438" fill="#41b6c4" opacity="0.9"/>
<rect x="648.571" y="239.271" width="27.929" height="120.729" fill="#41b6c4" opacity="0.9"/>
<rect x="677.5" y="305.99" width="27.929" height="54.01" fill="#41b6c4" opacity="0.9"/>
<rect x="706.429" y="325.052" width="27.929" height="34.948" fill="#41b6c4" opacity="0.9"/>
<rect x="735.357" y="360" width="27.929" height="0" fill="#41b6c4" opacity="0.9"/>
<rect x="764.286" y="356.823" width="27.929" height="3.177" fill="#41b6c4" opacity="0.9"/>
<rect x="793.214" y="356.823" width="27.929" height="3.177" fill="#41b6c4" opacity="0.9"/>
<rect x="822.143" y="360" width="27.929" height="0" fill="#41b6c4" opacity="0.9"/>
<rect x="851.071" y="350.469" width="27.929" height="9.531" fill="#41b6c4" opacity="0.9"/>
<text x="450.0" y="400" text-anchor="middle" font-size="12" fill="#333">PC1</text>
<text x="18" y="210.0" text-anchor="middle" font-size="12" fill="#333" transform="rotate(-90 18 210.0)">count</text>
</svg>
