<svg xmlns="http://www.w3.org/2000/svg" width="760" height="560" viewBox="0 0 760 560">
<rect x="0" y="0" width="100%" height="100%" fill="#ffffff"/>
<style>text{font-family: ui-sans-serif, system-ui, -apple-system, Segoe UI, Roboto, Helvetica, Arial; fill:#111}</style>
<defs>
  <marker id="arrowhead" markerWidth="10" markerHeight="7" refX="9" refY="3.5" orient="auto">
    <polygon points="0 0, 10 3.5, 0 7" fill="#333" />
  </marker>
</defs>
<text x="380.0" y="28" text-anchor="middle" font-size="16">Toy self-attention matrix (softmax(QKᵀ/√d))</text>
<rect x="80" y="55" width="650" height="445" fill="none" stroke="#333"/>
<rect x="80" y="55" width="54.167" height="37.083" fill="rgb(64,34,106)"/>
<rect x="134.167" y="55" width="54.167" height="37.083" fill="rgb(63,38,109)"/>
<rect x="188.333" y="55" width="54.167" height="37.083" fill="rgb(60,70,130)"/>
<rect x="242.5" y="55" width="54.167" height="37.083" fill="rgb(56,166,123)"/>
<rect x="296.667" y="55" width="54.167" height="37.083" fill="rgb(60,64,127)"/>
<rect x="350.833" y="55" width="54.167" height="37.083" fill="rgb(64,29,103)"/>
<rect x="405" y="55" width="54.167" height="37.083" fill="rgb(60,67,129)"/>
<rect x="459.167" y="55" width="54.167" height="37.083" fill="rgb(67,9,89)"/>
<rect x="513.333" y="55" width="54.167" height="37.083" fill="rgb(66,10,90)"/>
<rect x="567.5" y="55" width="54.167" height="37.083" fill="rgb(66,16,94)"/>
<rect x="621.667" y="55" width="54.167" height="37.083" fill="rgb(59,75,134)"/>
<rect x="675.833" y="55" width="54.167" height="37.083" fill="rgb(57,85,139)"/>
<rect x="80" y="92.083" width="54.167" height="37.083" fill="rgb(60,70,131)"/>
<rect x="134.167" y="92.083" width="54.167" height="37.083" fill="rgb(64,30,103)"/>
<rect x="188.333" y="92.083" width="54.167" height="37.083" fill="rgb(55,89,139)"/>
<rect x="242.5" y="92.083" width="54.167" height="37.083" fill="rgb(43,120,139)"/>
<rect x="296.667" y="92.083" width="54.167" height="37.083" fill="rgb(63,41,111)"/>
<rect x="350.833" y="92.083" width="54.167" height="37.083" fill="rgb(61,60,124)"/>
<rect x="405" y="92.083" width="54.167" height="37.083" fill="rgb(61,55,120)"/>
<rect x="459.167" y="92.083" width="54.167" height="37.083" fill="rgb(67,6,87)"/>
<rect x="513.333" y="92.083" width="54.167" height="37.083" fill="rgb(60,67,129)"/>
<rect x="567.5" y="92.083" width="54.167" height="37.083" fill="rgb(66,13,92)"/>
<rect x="621.667" y="92.083" width="54.167" height="37.083" fill="rgb(57,85,139)"/>
<rect x="675.833" y="92.083" width="54.167" height="37.083" fill="rgb(63,40,111)"/>
<rect x="80" y="129.167" width="54.167" height="37.083" fill="rgb(61,60,124)"/>
<rect x="134.167" y="129.167" width="54.167" height="37.083" fill="rgb(61,62,125)"/>
<rect x="188.333" y="129.167" width="54.167" height="37.083" fill="rgb(63,42,112)"/>
<rect x="242.5" y="129.167" width="54.167" height="37.083" fill="rgb(53,96,139)"/>
<rect x="296.667" y="129.167" width="54.167" height="37.083" fill="rgb(49,105,139)"/>
<rect x="350.833" y="129.167" width="54.167" height="37.083" fill="rgb(63,40,110)"/>
<rect x="405" y="129.167" width="54.167" height="37.083" fill="rgb(65,22,98)"/>
<rect x="459.167" y="129.167" width="54.167" height="37.083" fill="rgb(63,44,113)"/>
<rect x="513.333" y="129.167" width="54.167" height="37.083" fill="rgb(65,27,102)"/>
<rect x="567.5" y="129.167" width="54.167" height="37.083" fill="rgb(62,51,118)"/>
<rect x="621.667" y="129.167" width="54.167" height="37.083" fill="rgb(65,24,100)"/>
<rect x="675.833" y="129.167" width="54.167" height="37.083" fill="rgb(50,101,139)"/>
<rect x="80" y="166.25" width="54.167" height="37.083" fill="rgb(61,59,124)"/>
<rect x="134.167" y="166.25" width="54.167" height="37.083" fill="rgb(65,21,97)"/>
<rect x="188.333" y="166.25" width="54.167" height="37.083" fill="rgb(66,12,91)"/>
<rect x="242.5" y="166.25" width="54.167" height="37.083" fill="rgb(63,44,113)"/>
<rect x="296.667" y="166.25" width="54.167" height="37.083" fill="rgb(63,45,114)"/>
<rect x="350.833" y="166.25" width="54.167" height="37.083" fill="rgb(47,108,139)"/>
<rect x="405" y="166.25" width="54.167" height="37.083" fill="rgb(66,11,91)"/>
<rect x="459.167" y="166.25" width="54.167" height="37.083" fill="rgb(62,48,116)"/>
<rect x="513.333" y="166.25" width="54.167" height="37.083" fill="rgb(55,165,124)"/>
<rect x="567.5" y="166.25" width="54.167" height="37.083" fill="rgb(54,93,139)"/>
<rect x="621.667" y="166.25" width="54.167" height="37.083" fill="rgb(64,28,102)"/>
<rect x="675.833" y="166.25" width="54.167" height="37.083" fill="rgb(66,18,95)"/>
<rect x="80" y="203.333" width="54.167" height="37.083" fill="rgb(56,88,139)"/>
<rect x="134.167" y="203.333" width="54.167" height="37.083" fill="rgb(65,19,96)"/>
<rect x="188.333" y="203.333" width="54.167" height="37.083" fill="rgb(61,62,126)"/>
<rect x="242.5" y="203.333" width="54.167" height="37.083" fill="rgb(59,77,135)"/>
<rect x="296.667" y="203.333" width="54.167" height="37.083" fill="rgb(67,5,86)"/>
<rect x="350.833" y="203.333" width="54.167" height="37.083" fill="rgb(77,185,109)"/>
<rect x="405" y="203.333" width="54.167" height="37.083" fill="rgb(63,42,112)"/>
<rect x="459.167" y="203.333" width="54.167" height="37.083" fill="rgb(66,15,93)"/>
<rect x="513.333" y="203.333" width="54.167" height="37.083" fill="rgb(61,59,123)"/>
<rect x="567.5" y="203.333" width="54.167" height="37.083" fill="rgb(67,8,88)"/>
<rect x="621.667" y="203.333" width="54.167" height="37.083" fill="rgb(58,82,139)"/>
<rect x="675.833" y="203.333" width="54.167" height="37.083" fill="rgb(66,12,91)"/>
<rect x="80" y="240.417" width="54.167" height="37.083" fill="rgb(61,57,122)"/>
<rect x="134.167" y="240.417" width="54.167" height="37.083" fill="rgb(61,55,121)"/>
<rect x="188.333" y="240.417" width="54.167" height="37.083" fill="rgb(62,46,114)"/>
<rect x="242.5" y="240.417" width="54.167" height="37.083" fill="rgb(62,47,115)"/>
<rect x="296.667" y="240.417" width="54.167" height="37.083" fill="rgb(61,58,122)"/>
<rect x="350.833" y="240.417" width="54.167" height="37.083" fill="rgb(54,93,139)"/>
<rect x="405" y="240.417" width="54.167" height="37.083" fill="rgb(62,53,119)"/>
<rect x="459.167" y="240.417" width="54.167" height="37.083" fill="rgb(60,64,126)"/>
<rect x="513.333" y="240.417" width="54.167" height="37.083" fill="rgb(62,46,115)"/>
<rect x="567.5" y="240.417" width="54.167" height="37.083" fill="rgb(61,55,121)"/>
<rect x="621.667" y="240.417" width="54.167" height="37.083" fill="rgb(62,48,116)"/>
<rect x="675.833" y="240.417" width="54.167" height="37.083" fill="rgb(60,66,128)"/>
<rect x="80" y="277.5" width="54.167" height="37.083" fill="rgb(63,42,112)"/>
<rect x="134.167" y="277.5" width="54.167" height="37.083" fill="rgb(64,29,103)"/>
<rect x="188.333" y="277.5" width="54.167" height="37.083" fill="rgb(64,28,102)"/>
<rect x="242.5" y="277.5" width="54.167" height="37.083" fill="rgb(67,9,89)"/>
<rect x="296.667" y="277.5" width="54.167" height="37.083" fill="rgb(58,83,139)"/>
<rect x="350.833" y="277.5" width="54.167" height="37.083" fill="rgb(64,32,105)"/>
<rect x="405" y="277.5" width="54.167" height="37.083" fill="rgb(67,8,89)"/>
<rect x="459.167" y="277.5" width="54.167" height="37.083" fill="rgb(62,50,117)"/>
<rect x="513.333" y="277.5" width="54.167" height="37.083" fill="rgb(197,220,58)"/>
<rect x="567.5" y="277.5" width="54.167" height="37.083" fill="rgb(59,81,138)"/>
<rect x="621.667" y="277.5" width="54.167" height="37.083" fill="rgb(65,20,97)"/>
<rect x="675.833" y="277.5" width="54.167" height="37.083" fill="rgb(66,14,92)"/>
<rect x="80" y="314.583" width="54.167" height="37.083" fill="rgb(65,24,99)"/>
<rect x="134.167" y="314.583" width="54.167" height="37.083" fill="rgb(67,6,87)"/>
<rect x="188.333" y="314.583" width="54.167" height="37.083" fill="rgb(62,52,118)"/>
<rect x="242.5" y="314.583" width="54.167" height="37.083" fill="rgb(60,69,130)"/>
<rect x="296.667" y="314.583" width="54.167" height="37.083" fill="rgb(59,73,133)"/>
<rect x="350.833" y="314.583" width="54.167" height="37.083" fill="rgb(66,18,96)"/>
<rect x="405" y="314.583" width="54.167" height="37.083" fill="rgb(66,16,94)"/>
<rect x="459.167" y="314.583" width="54.167" height="37.083" fill="rgb(68,1,84)"/>
<rect x="513.333" y="314.583" width="54.167" height="37.083" fill="rgb(252,230,37)"/>
<rect x="567.5" y="314.583" width="54.167" height="37.083" fill="rgb(64,33,106)"/>
<rect x="621.667" y="314.583" width="54.167" height="37.083" fill="rgb(60,70,131)"/>
<rect x="675.833" y="314.583" width="54.167" height="37.083" fill="rgb(67,5,87)"/>
<rect x="80" y="351.667" width="54.167" height="37.083" fill="rgb(59,77,136)"/>
<rect x="134.167" y="351.667" width="54.167" height="37.083" fill="rgb(62,54,120)"/>
<rect x="188.333" y="351.667" width="54.167" height="37.083" fill="rgb(58,83,139)"/>
<rect x="242.5" y="351.667" width="54.167" height="37.083" fill="rgb(60,67,128)"/>
<rect x="296.667" y="351.667" width="54.167" height="37.083" fill="rgb(62,54,120)"/>
<rect x="350.833" y="351.667" width="54.167" height="37.083" fill="rgb(61,57,122)"/>
<rect x="405" y="351.667" width="54.167" height="37.083" fill="rgb(65,27,102)"/>
<rect x="459.167" y="351.667" width="54.167" height="37.083" fill="rgb(63,42,111)"/>
<rect x="513.333" y="351.667" width="54.167" height="37.083" fill="rgb(62,50,117)"/>
<rect x="567.5" y="351.667" width="54.167" height="37.083" fill="rgb(63,42,111)"/>
<rect x="621.667" y="351.667" width="54.167" height="37.083" fill="rgb(47,109,139)"/>
<rect x="675.833" y="351.667" width="54.167" height="37.083" fill="rgb(65,20,97)"/>
<rect x="80" y="388.75" width="54.167" height="37.083" fill="rgb(66,17,95)"/>
<rect x="134.167" y="388.75" width="54.167" height="37.083" fill="rgb(67,8,89)"/>
<rect x="188.333" y="388.75" width="54.167" height="37.083" fill="rgb(61,63,126)"/>
<rect x="242.5" y="388.75" width="54.167" height="37.083" fill="rgb(51,99,139)"/>
<rect x="296.667" y="388.75" width="54.167" height="37.083" fill="rgb(62,52,118)"/>
<rect x="350.833" y="388.75" width="54.167" height="37.083" fill="rgb(64,31,104)"/>
<rect x="405" y="388.75" width="54.167" height="37.083" fill="rgb(63,38,109)"/>
<rect x="459.167" y="388.75" width="54.167" height="37.083" fill="rgb(67,9,89)"/>
<rect x="513.333" y="388.75" width="54.167" height="37.083" fill="rgb(53,163,125)"/>
<rect x="567.5" y="388.75" width="54.167" height="37.083" fill="rgb(63,44,113)"/>
<rect x="621.667" y="388.75" width="54.167" height="37.083" fill="rgb(44,117,139)"/>
<rect x="675.833" y="388.75" width="54.167" height="37.083" fill="rgb(67,7,88)"/>
<rect x="80" y="425.833" width="54.167" height="37.083" fill="rgb(63,44,113)"/>
<rect x="134.167" y="425.833" width="54.167" height="37.083" fill="rgb(60,68,130)"/>
<rect x="188.333" y="425.833" width="54.167" height="37.083" fill="rgb(64,28,102)"/>
<rect x="242.5" y="425.833" width="54.167" height="37.083" fill="rgb(64,29,103)"/>
<rect x="296.667" y="425.833" width="54.167" height="37.083" fill="rgb(61,55,121)"/>
<rect x="350.833" y="425.833" width="54.167" height="37.083" fill="rgb(54,92,139)"/>
<rect x="405" y="425.833" width="54.167" height="37.083" fill="rgb(62,50,117)"/>
<rect x="459.167" y="425.833" width="54.167" height="37.083" fill="rgb(55,89,139)"/>
<rect x="513.333" y="425.833" width="54.167" height="37.083" fill="rgb(60,66,128)"/>
<rect x="567.5" y="425.833" width="54.167" height="37.083" fill="rgb(63,42,112)"/>
<rect x="621.667" y="425.833" width="54.167" height="37.083" fill="rgb(63,37,108)"/>
<rect x="675.833" y="425.833" width="54.167" height="37.083" fill="rgb(58,84,139)"/>
<rect x="80" y="462.917" width="54.167" height="37.083" fill="rgb(52,97,139)"/>
<rect x="134.167" y="462.917" width="54.167" height="37.083" fill="rgb(64,33,106)"/>
<rect x="188.333" y="462.917" width="54.167" height="37.083" fill="rgb(64,31,104)"/>
<rect x="242.5" y="462.917" width="54.167" height="37.083" fill="rgb(61,62,126)"/>
<rect x="296.667" y="462.917" width="54.167" height="37.083" fill="rgb(67,8,89)"/>
<rect x="350.833" y="462.917" width="54.167" height="37.083" fill="rgb(139,209,80)"/>
<rect x="405" y="462.917" width="54.167" height="37.083" fill="rgb(64,36,108)"/>
<rect x="459.167" y="462.917" width="54.167" height="37.083" fill="rgb(63,38,109)"/>
<rect x="513.333" y="462.917" width="54.167" height="37.083" fill="rgb(64,29,103)"/>
<rect x="567.5" y="462.917" width="54.167" height="37.083" fill="rgb(66,13,92)"/>
<rect x="621.667" y="462.917" width="54.167" height="37.083" fill="rgb(65,22,98)"/>
<rect x="675.833" y="462.917" width="54.167" height="37.083" fill="rgb(62,49,117)"/>
<text x="107.083" y="518" text-anchor="middle" font-size="10" fill="#444">0</text>
<text x="215.417" y="518" text-anchor="middle" font-size="10" fill="#444">2</text>
<text x="323.75" y="518" text-anchor="middle" font-size="10" fill="#444">4</text>
<text x="432.083" y="518" text-anchor="middle" font-size="10" fill="#444">6</text>
<text x="540.417" y="518" text-anchor="middle" font-size="10" fill="#444">8</text>
<text x="648.75" y="518" text-anchor="middle" font-size="10" fill="#444">10</text>
<text x="72" y="76.542" text-anchor="end" font-size="10" fill="#444">0</text>
<text x="72" y="150.708" text-anchor="end" font-size="10" fill="#444">2</text>
<text x="72" y="224.875" text-anchor="end" font-size="10" fill="#444">4</text>
<text x="72" y="299.042" text-anchor="end" font-size="10" fill="#444">6</text>
<text x="72" y="373.208" text-anchor="end" font-size="10" fill="#444">8</text>
<text x="72" y="447.375" text-anchor="end" font-size="10" fill="#444">10</text>
<text x="380.0" y="540" text-anchor="middle" font-size="12" fill="#333">key token</text>
<text x="18" y="280.0" text-anchor="middle" font-size="12" fill="#333" transform="rotate(-90 18 280.0)">query token</text>
</svg>
