<svg xmlns="http://www.w3.org/2000/svg" width="920" height="420" viewBox="0 0 920 420">
<rect x="0" y="0" width="100%" height="100%" fill="#ffffff"/>
<style>text{font-family: ui-sans-serif, system-ui, -apple-system, Segoe UI, Roboto, Helvetica, Arial; fill:#111}</style>
<defs>
  <marker id="arrowhead" markerWidth="10" markerHeight="7" refX="9" refY="3.5" orient="auto">
    <polygon points="0 0, 10 3.5, 0 7" fill="#333" />
  </marker>
</defs>
<text x="460.0" y="28" text-anchor="middle" font-size="16">Attention row entropy (lower ⇒ more peaky)</text>
<line x1="70" y1="360" x2="900" y2="360" stroke="#333"/>
<line x1="70" y1="55" x2="70" y2="360" stroke="#333"/>
<line x1="70" y1="360" x2="900" y2="360" stroke="#111" stroke-width="1" opacity="0.6"/>
<rect x="70" y="82.361" width="63.633" height="277.639" fill="#2c7fb8" opacity="0.9"/>
<rect x="139.167" y="70.264" width="63.633" height="289.736" fill="#2c7fb8" opacity="0.9"/>
<rect x="208.333" y="66.017" width="63.633" height="293.983" fill="#2c7fb8" opacity="0.9"/>
<rect x="277.5" y="85.726" width="63.633" height="274.274" fill="#2c7fb8" opacity="0.9"/>
<rect x="346.667" y="93.811" width="63.633" height="266.189" fill="#2c7fb8" opacity="0.9"/>
<rect x="415.833" y="55" width="63.633" height="305" fill="#2c7fb8" opacity="0.9"/>
<rect x="485" y="108.754" width="63.633" height="251.246" fill="#2c7fb8" opacity="0.9"/>
<rect x="554.167" y="121.932" width="63.633" height="238.068" fill="#2c7fb8" opacity="0.9"/>
<rect x="623.333" y="61.842" width="63.633" height="298.158" fill="#2c7fb8" opacity="0.9"/>
<rect x="692.5" y="91.012" width="63.633" height="268.988" fill="#2c7fb8" opacity="0.9"/>
<rect x="761.667" y="60.154" width="63.633" height="299.846" fill="#2c7fb8" opacity="0.9"/>
<rect x="830.833" y="98.428" width="63.633" height="261.572" fill="#2c7fb8" opacity="0.9"/>
<text x="460.0" y="400" text-anchor="middle" font-size="12" fill="#333">query token index</text>
<text x="18" y="210.0" text-anchor="middle" font-size="12" fill="#333" transform="rotate(-90 18 210.0)">entropy (bits)</text>
</svg>
