<svg xmlns="http://www.w3.org/2000/svg" width="820" height="420" viewBox="0 0 820 420">
<rect x="0" y="0" width="100%" height="100%" fill="#ffffff"/>
<style>text{font-family: ui-sans-serif, system-ui, -apple-system, Segoe UI, Roboto, Helvetica, Arial; fill:#111}</style>
<defs>
  <marker id="arrowhead" markerWidth="10" markerHeight="7" refX="9" refY="3.5" orient="auto">
    <polygon points="0 0, 10 3.5, 0 7" fill="#333" />
  </marker>
</defs>
<text x="410.0" y="28" text-anchor="middle" font-size="16">Entropy increases with temperature (toy)</text>
<line x1="70" y1="360" x2="800" y2="360" stroke="#333"/>
<line x1="70" y1="55" x2="70" y2="360" stroke="#333"/>
<line x1="70" y1="55" x2="800" y2="55" stroke="#eee"/>
<text x="62" y="59" text-anchor="end" font-size="11" fill="#444">6.136</text>
<line x1="70" y1="116" x2="800" y2="116" stroke="#eee"/>
<text x="62" y="120" text-anchor="end" font-size="11" fill="#444">5.567</text>
<line x1="70" y1="177" x2="800" y2="177" stroke="#eee"/>
<text x="62" y="181" text-anchor="end" font-size="11" fill="#444">4.999</text>
<line x1="70" y1="238" x2="800" y2="238" stroke="#eee"/>
<text x="62" y="242" text-anchor="end" font-size="11" fill="#444">4.431</text>
<line x1="70" y1="299" x2="800" y2="299" stroke="#eee"/>
<text x="62" y="303" text-anchor="end" font-size="11" fill="#444">3.863</text>
<line x1="70" y1="360" x2="800" y2="360" stroke="#eee"/>
<text x="62" y="364" text-anchor="end" font-size="11" fill="#444">3.295</text>
<line x1="70" y1="55" x2="70" y2="360" stroke="#f3f3f3"/>
<text x="70" y="378" text-anchor="middle" font-size="11" fill="#444">0.2</text>
<line x1="216" y1="55" x2="216" y2="360" stroke="#f3f3f3"/>
<text x="216" y="378" text-anchor="middle" font-size="11" fill="#444">0.5</text>
<line x1="362" y1="55" x2="362" y2="360" stroke="#f3f3f3"/>
<text x="362" y="378" text-anchor="middle" font-size="11" fill="#444">0.8</text>
<line x1="508" y1="55" x2="508" y2="360" stroke="#f3f3f3"/>
<text x="508" y="378" text-anchor="middle" font-size="11" fill="#444">1.1</text>
<line x1="654" y1="55" x2="654" y2="360" stroke="#f3f3f3"/>
<text x="654" y="378" text-anchor="middle" font-size="11" fill="#444">1.4</text>
<line x1="800" y1="55" x2="800" y2="360" stroke="#f3f3f3"/>
<text x="800" y="378" text-anchor="middle" font-size="11" fill="#444">1.7</text>
<text x="410.0" y="400" text-anchor="middle" font-size="12" fill="#333">temperature</text>
<text x="18" y="210.0" text-anchor="middle" font-size="12" fill="#333" transform="rotate(-90 18 210.0)">entropy (bits)</text>
<polyline points="70,360 216,218.489 362,146.881 459.333,115.075 605.333,82.025 800,55" fill="none" stroke="#2c7fb8" stroke-width="2"/>
<line x1="80" y1="65" x2="98" y2="65" stroke="#2c7fb8" stroke-width="3"/>
<text x="104" y="69" font-size="12" fill="#222">entropy</text>
</svg>
