<svg xmlns="http://www.w3.org/2000/svg" width="900" height="420" viewBox="0 0 900 420">
<rect x="0" y="0" width="100%" height="100%" fill="#ffffff"/>
<style>text{font-family: ui-sans-serif, system-ui, -apple-system, Segoe UI, Roboto, Helvetica, Arial; fill:#111}</style>
<defs>
  <marker id="arrowhead" markerWidth="10" markerHeight="7" refX="9" refY="3.5" orient="auto">
    <polygon points="0 0, 10 3.5, 0 7" fill="#333" />
  </marker>
</defs>
<text x="450.0" y="28" text-anchor="middle" font-size="16">Nucleus sampling: how many tokens survive top-p? (toy)</text>
<line x1="70" y1="360" x2="880" y2="360" stroke="#333"/>
<line x1="70" y1="55" x2="70" y2="360" stroke="#333"/>
<line x1="70" y1="55" x2="880" y2="55" stroke="#eee"/>
<text x="62" y="59" text-anchor="end" font-size="11" fill="#444">1</text>
<line x1="70" y1="116" x2="880" y2="116" stroke="#eee"/>
<text x="62" y="120" text-anchor="end" font-size="11" fill="#444">0.811</text>
<line x1="70" y1="177" x2="880" y2="177" stroke="#eee"/>
<text x="62" y="181" text-anchor="end" font-size="11" fill="#444">0.622</text>
<line x1="70" y1="238" x2="880" y2="238" stroke="#eee"/>
<text x="62" y="242" text-anchor="end" font-size="11" fill="#444">0.433</text>
<line x1="70" y1="299" x2="880" y2="299" stroke="#eee"/>
<text x="62" y="303" text-anchor="end" font-size="11" fill="#444">0.243</text>
<line x1="70" y1="360" x2="880" y2="360" stroke="#eee"/>
<text x="62" y="364" text-anchor="end" font-size="11" fill="#444">0.054</text>
<line x1="70" y1="55" x2="70" y2="360" stroke="#f3f3f3"/>
<text x="70" y="378" text-anchor="middle" font-size="11" fill="#444">1</text>
<line x1="232" y1="55" x2="232" y2="360" stroke="#f3f3f3"/>
<text x="232" y="378" text-anchor="middle" font-size="11" fill="#444">20.8</text>
<line x1="394" y1="55" x2="394" y2="360" stroke="#f3f3f3"/>
<text x="394" y="378" text-anchor="middle" font-size="11" fill="#444">40.6</text>
<line x1="556" y1="55" x2="556" y2="360" stroke="#f3f3f3"/>
<text x="556" y="378" text-anchor="middle" font-size="11" fill="#444">60.4</text>
<line x1="718" y1="55" x2="718" y2="360" stroke="#f3f3f3"/>
<text x="718" y="378" text-anchor="middle" font-size="11" fill="#444">80.2</text>
<line x1="880" y1="55" x2="880" y2="360" stroke="#f3f3f3"/>
<text x="880" y="378" text-anchor="middle" font-size="11" fill="#444">100</text>
<text x="450.0" y="400" text-anchor="middle" font-size="12" fill="#333">#tokens kept (rank)</text>
<text x="18" y="210.0" text-anchor="middle" font-size="12" fill="#333" transform="rotate(-90 18 210.0)">cumulative probability</text>
<polyline points="70,360 78.182,343.45 86.364,327.794 94.545,312.985 102.727,298.976 110.909,285.723 119.091,273.187 127.273,261.329 135.455,250.111 143.636,239.499 151.818,229.461 160,219.966 168.182,210.983 176.364,202.486 184.545,194.448 192.727,186.845 200.909,179.652 209.091,172.848 217.273,166.412 225.455,160.324 233.636,154.564 241.818,149.116 250,143.962 258.182,139.087 266.364,134.475 274.545,130.113 282.727,125.986 290.909,122.082 299.091,118.39 307.273,114.896 315.455,111.592 323.636,108.466 331.818,105.509 340,102.712 348.182,100.066 356.364,97.563 364.545,95.195 372.727,92.955 380.909,90.837 389.091,88.832 397.273,86.936 405.455,85.143 413.636,83.446 421.818,81.841 430,80.323 438.182,78.887 446.364,77.529 454.545,76.243 462.727,75.028 470.909,73.878 479.091,72.79 487.273,71.761 495.455,70.788 503.636,69.867 511.818,68.996 520,68.172 528.182,67.392 536.364,66.655 544.545,65.958 552.727,65.298 560.909,64.674 569.091,64.083 577.273,63.525 585.455,62.996 593.636,62.497 601.818,62.024 610,61.577 618.182,61.154 626.364,60.753 634.545,60.375 642.727,60.017 650.909,59.678 659.091,59.358 667.273,59.054 675.455,58.768 683.636,58.496 691.818,58.24 700,57.997 708.182,57.768 716.364,57.55 724.545,57.345 732.727,57.151 740.909,56.967 749.091,56.793 757.273,56.628 765.455,56.473 773.636,56.325 781.818,56.186 790,56.054 798.182,55.93 806.364,55.812 814.545,55.7 822.727,55.595 830.909,55.495 839.091,55.401 847.273,55.311 855.455,55.227 863.636,55.147 871.818,55.071 880,55" fill="none" stroke="#41b6c4" stroke-width="2"/>
<line x1="80" y1="65" x2="98" y2="65" stroke="#41b6c4" stroke-width="3"/>
<text x="104" y="69" font-size="12" fill="#222">CDF</text>
</svg>
