<svg xmlns="http://www.w3.org/2000/svg" width="900" height="420" viewBox="0 0 900 420">
<rect x="0" y="0" width="100%" height="100%" fill="#ffffff"/>
<style>text{font-family: ui-sans-serif, system-ui, -apple-system, Segoe UI, Roboto, Helvetica, Arial; fill:#111}</style>
<defs>
  <marker id="arrowhead" markerWidth="10" markerHeight="7" refX="9" refY="3.5" orient="auto">
    <polygon points="0 0, 10 3.5, 0 7" fill="#333" />
  </marker>
</defs>
<text x="450.0" y="28" text-anchor="middle" font-size="16">VAD scores: speech frames (synthetic)</text>
<line x1="70" y1="360" x2="880" y2="360" stroke="#333"/>
<line x1="70" y1="55" x2="70" y2="360" stroke="#333"/>
<rect x="70" y="359.187" width="22.143" height="0.813" fill="#41b6c4" opacity="0.9"/>
<rect x="93.143" y="360" width="22.143" height="0" fill="#41b6c4" opacity="0.9"/>
<rect x="116.286" y="360" width="22.143" height="0" fill="#41b6c4" opacity="0.9"/>
<rect x="139.429" y="359.187" width="22.143" height="0.813" fill="#41b6c4" opacity="0.9"/>
<rect x="162.571" y="358.373" width="22.143" height="1.627" fill="#41b6c4" opacity="0.9"/>
<rect x="185.714" y="356.747" width="22.143" height="3.253" fill="#41b6c4" opacity="0.9"/>
<rect x="208.857" y="356.747" width="22.143" height="3.253" fill="#41b6c4" opacity="0.9"/>
<rect x="232" y="355.12" width="22.143" height="4.88" fill="#41b6c4" opacity="0.9"/>
<rect x="255.143" y="351.867" width="22.143" height="8.133" fill="#41b6c4" opacity="0.9"/>
<rect x="278.286" y="349.427" width="22.143" height="10.573" fill="#41b6c4" opacity="0.9"/>
<rect x="301.429" y="338.04" width="22.143" height="21.96" fill="#41b6c4" opacity="0.9"/>
<rect x="324.571" y="335.6" width="22.143" height="24.4" fill="#41b6c4" opacity="0.9"/>
<rect x="347.714" y="325.027" width="22.143" height="34.973" fill="#41b6c4" opacity="0.9"/>
<rect x="370.857" y="319.333" width="22.143" height="40.667" fill="#41b6c4" opacity="0.9"/>
<rect x="394" y="299" width="22.143" height="61" fill="#41b6c4" opacity="0.9"/>
<rect x="417.143" y="282.733" width="22.143" height="77.267" fill="#41b6c4" opacity="0.9"/>
<rect x="440.286" y="275.413" width="22.143" height="84.587" fill="#41b6c4" opacity="0.9"/>
<rect x="463.429" y="283.547" width="22.143" height="76.453" fill="#41b6c4" opacity="0.9"/>
<rect x="486.571" y="233.12" width="22.143" height="126.88" fill="#41b6c4" opacity="0.9"/>
<rect x="509.714" y="218.48" width="22.143" height="141.52" fill="#41b6c4" opacity="0.9"/>
<rect x="532.857" y="213.6" width="22.143" height="146.4" fill="#41b6c4" opacity="0.9"/>
<rect x="556" y="176.187" width="22.143" height="183.813" fill="#41b6c4" opacity="0.9"/>
<rect x="579.143" y="145.28" width="22.143" height="214.72" fill="#41b6c4" opacity="0.9"/>
<rect x="602.286" y="137.96" width="22.143" height="222.04" fill="#41b6c4" opacity="0.9"/>
<rect x="625.429" y="131.453" width="22.143" height="228.547" fill="#41b6c4" opacity="0.9"/>
<rect x="648.571" y="77.773" width="22.143" height="282.227" fill="#41b6c4" opacity="0.9"/>
<rect x="671.714" y="72.893" width="22.143" height="287.107" fill="#41b6c4" opacity="0.9"/>
<rect x="694.857" y="55" width="22.143" height="305" fill="#41b6c4" opacity="0.9"/>
<rect x="718" y="71.267" width="22.143" height="288.733" fill="#41b6c4" opacity="0.9"/>
<rect x="741.143" y="69.64" width="22.143" height="290.36" fill="#41b6c4" opacity="0.9"/>
<rect x="764.286" y="107.053" width="22.143" height="252.947" fill="#41b6c4" opacity="0.9"/>
<rect x="787.429" y="106.24" width="22.143" height="253.76" fill="#41b6c4" opacity="0.9"/>
<rect x="810.571" y="153.413" width="22.143" height="206.587" fill="#41b6c4" opacity="0.9"/>
<rect x="833.714" y="233.12" width="22.143" height="126.88" fill="#41b6c4" opacity="0.9"/>
<rect x="856.857" y="305.507" width="22.143" height="54.493" fill="#41b6c4" opacity="0.9"/>
<text x="450.0" y="400" text-anchor="middle" font-size="12" fill="#333">score</text>
<text x="18" y="210.0" text-anchor="middle" font-size="12" fill="#333" transform="rotate(-90 18 210.0)">frames</text>
</svg>
