<svg xmlns="http://www.w3.org/2000/svg" width="900" height="420" viewBox="0 0 900 420">
<rect x="0" y="0" width="100%" height="100%" fill="#ffffff"/>
<style>text{font-family: ui-sans-serif, system-ui, -apple-system, Segoe UI, Roboto, Helvetica, Arial; fill:#111}</style>
<defs>
  <marker id="arrowhead" markerWidth="10" markerHeight="7" refX="9" refY="3.5" orient="auto">
    <polygon points="0 0, 10 3.5, 0 7" fill="#333" />
  </marker>
</defs>
<text x="450.0" y="28" text-anchor="middle" font-size="16">VAD scores: non-speech frames (synthetic)</text>
<line x1="70" y1="360" x2="880" y2="360" stroke="#333"/>
<line x1="70" y1="55" x2="70" y2="360" stroke="#333"/>
<rect x="70" y="195.926" width="22.143" height="164.074" fill="#41b6c4" opacity="0.9"/>
<rect x="93.143" y="80.871" width="22.143" height="279.129" fill="#41b6c4" opacity="0.9"/>
<rect x="116.286" y="95.167" width="22.143" height="264.833" fill="#41b6c4" opacity="0.9"/>
<rect x="139.429" y="86.317" width="22.143" height="273.683" fill="#41b6c4" opacity="0.9"/>
<rect x="162.571" y="55" width="22.143" height="305" fill="#41b6c4" opacity="0.9"/>
<rect x="185.714" y="92.444" width="22.143" height="267.556" fill="#41b6c4" opacity="0.9"/>
<rect x="208.857" y="109.464" width="22.143" height="250.536" fill="#41b6c4" opacity="0.9"/>
<rect x="232" y="144.185" width="22.143" height="215.815" fill="#41b6c4" opacity="0.9"/>
<rect x="255.143" y="137.377" width="22.143" height="222.623" fill="#41b6c4" opacity="0.9"/>
<rect x="278.286" y="169.375" width="22.143" height="190.625" fill="#41b6c4" opacity="0.9"/>
<rect x="301.429" y="203.415" width="22.143" height="156.585" fill="#41b6c4" opacity="0.9"/>
<rect x="324.571" y="212.946" width="22.143" height="147.054" fill="#41b6c4" opacity="0.9"/>
<rect x="347.714" y="240.179" width="22.143" height="119.821" fill="#41b6c4" opacity="0.9"/>
<rect x="370.857" y="252.433" width="22.143" height="107.567" fill="#41b6c4" opacity="0.9"/>
<rect x="394" y="292.6" width="22.143" height="67.4" fill="#41b6c4" opacity="0.9"/>
<rect x="417.143" y="279.665" width="22.143" height="80.335" fill="#41b6c4" opacity="0.9"/>
<rect x="440.286" y="300.089" width="22.143" height="59.911" fill="#41b6c4" opacity="0.9"/>
<rect x="463.429" y="308.259" width="22.143" height="51.741" fill="#41b6c4" opacity="0.9"/>
<rect x="486.571" y="313.705" width="22.143" height="46.295" fill="#41b6c4" opacity="0.9"/>
<rect x="509.714" y="332.768" width="22.143" height="27.232" fill="#41b6c4" opacity="0.9"/>
<rect x="532.857" y="332.768" width="22.143" height="27.232" fill="#41b6c4" opacity="0.9"/>
<rect x="556" y="342.98" width="22.143" height="17.02" fill="#41b6c4" opacity="0.9"/>
<rect x="579.143" y="342.299" width="22.143" height="17.701" fill="#41b6c4" opacity="0.9"/>
<rect x="602.286" y="349.107" width="22.143" height="10.893" fill="#41b6c4" opacity="0.9"/>
<rect x="625.429" y="350.469" width="22.143" height="9.531" fill="#41b6c4" opacity="0.9"/>
<rect x="648.571" y="351.83" width="22.143" height="8.17" fill="#41b6c4" opacity="0.9"/>
<rect x="671.714" y="351.83" width="22.143" height="8.17" fill="#41b6c4" opacity="0.9"/>
<rect x="694.857" y="357.277" width="22.143" height="2.723" fill="#41b6c4" opacity="0.9"/>
<rect x="718" y="359.319" width="22.143" height="0.681" fill="#41b6c4" opacity="0.9"/>
<rect x="741.143" y="357.958" width="22.143" height="2.042" fill="#41b6c4" opacity="0.9"/>
<rect x="764.286" y="359.319" width="22.143" height="0.681" fill="#41b6c4" opacity="0.9"/>
<rect x="787.429" y="359.319" width="22.143" height="0.681" fill="#41b6c4" opacity="0.9"/>
<rect x="810.571" y="360" width="22.143" height="0" fill="#41b6c4" opacity="0.9"/>
<rect x="833.714" y="360" width="22.143" height="0" fill="#41b6c4" opacity="0.9"/>
<rect x="856.857" y="359.319" width="22.143" height="0.681" fill="#41b6c4" opacity="0.9"/>
<text x="450.0" y="400" text-anchor="middle" font-size="12" fill="#333">score</text>
<text x="18" y="210.0" text-anchor="middle" font-size="12" fill="#333" transform="rotate(-90 18 210.0)">frames</text>
</svg>
