<svg xmlns="http://www.w3.org/2000/svg" width="900" height="420" viewBox="0 0 900 420">
<rect x="0" y="0" width="100%" height="100%" fill="#ffffff"/>
<style>text{font-family: ui-sans-serif, system-ui, -apple-system, Segoe UI, Roboto, Helvetica, Arial; fill:#111}</style>
<defs>
  <marker id="arrowhead" markerWidth="10" markerHeight="7" refX="9" refY="3.5" orient="auto">
    <polygon points="0 0, 10 3.5, 0 7" fill="#333" />
  </marker>
</defs>
<text x="450.0" y="28" text-anchor="middle" font-size="16">Chars per token (real prompts; measured via API usage)</text>
<line x1="70" y1="360" x2="880" y2="360" stroke="#333"/>
<line x1="70" y1="55" x2="70" y2="360" stroke="#333"/>
<rect x="70" y="55" width="44" height="305" fill="#41b6c4" opacity="0.9"/>
<rect x="115" y="360" width="44" height="0" fill="#41b6c4" opacity="0.9"/>
<rect x="160" y="360" width="44" height="0" fill="#41b6c4" opacity="0.9"/>
<rect x="205" y="360" width="44" height="0" fill="#41b6c4" opacity="0.9"/>
<rect x="250" y="360" width="44" height="0" fill="#41b6c4" opacity="0.9"/>
<rect x="295" y="360" width="44" height="0" fill="#41b6c4" opacity="0.9"/>
<rect x="340" y="360" width="44" height="0" fill="#41b6c4" opacity="0.9"/>
<rect x="385" y="55" width="44" height="305" fill="#41b6c4" opacity="0.9"/>
<rect x="430" y="360" width="44" height="0" fill="#41b6c4" opacity="0.9"/>
<rect x="475" y="360" width="44" height="0" fill="#41b6c4" opacity="0.9"/>
<rect x="520" y="360" width="44" height="0" fill="#41b6c4" opacity="0.9"/>
<rect x="565" y="360" width="44" height="0" fill="#41b6c4" opacity="0.9"/>
<rect x="610" y="360" width="44" height="0" fill="#41b6c4" opacity="0.9"/>
<rect x="655" y="360" width="44" height="0" fill="#41b6c4" opacity="0.9"/>
<rect x="700" y="360" width="44" height="0" fill="#41b6c4" opacity="0.9"/>
<rect x="745" y="55" width="44" height="305" fill="#41b6c4" opacity="0.9"/>
<rect x="790" y="360" width="44" height="0" fill="#41b6c4" opacity="0.9"/>
<rect x="835" y="55" width="44" height="305" fill="#41b6c4" opacity="0.9"/>
<line x1="1003.559" y1="55" x2="1003.559" y2="360" stroke="#d7301f" stroke-width="2"/>
<text x="450.0" y="400" text-anchor="middle" font-size="12" fill="#333">chars/token</text>
<text x="18" y="210.0" text-anchor="middle" font-size="12" fill="#333" transform="rotate(-90 18 210.0)">samples</text>
</svg>
