<svg xmlns="http://www.w3.org/2000/svg" width="900" height="420" viewBox="0 0 900 420">
<rect x="0" y="0" width="100%" height="100%" fill="#ffffff"/>
<style>text{font-family: ui-sans-serif, system-ui, -apple-system, Segoe UI, Roboto, Helvetica, Arial; fill:#111}</style>
<defs>
  <marker id="arrowhead" markerWidth="10" markerHeight="7" refX="9" refY="3.5" orient="auto">
    <polygon points="0 0, 10 3.5, 0 7" fill="#333" />
  </marker>
</defs>
<text x="450.0" y="28" text-anchor="middle" font-size="16">Rule-of-thumb check on synthetic text: chars per token</text>
<line x1="70" y1="360" x2="880" y2="360" stroke="#333"/>
<line x1="70" y1="55" x2="70" y2="360" stroke="#333"/>
<rect x="70" y="359.861" width="26" height="0.139" fill="#41b6c4" opacity="0.9"/>
<rect x="97" y="360" width="26" height="0" fill="#41b6c4" opacity="0.9"/>
<rect x="124" y="360" width="26" height="0" fill="#41b6c4" opacity="0.9"/>
<rect x="151" y="360" width="26" height="0" fill="#41b6c4" opacity="0.9"/>
<rect x="178" y="359.861" width="26" height="0.139" fill="#41b6c4" opacity="0.9"/>
<rect x="205" y="360" width="26" height="0" fill="#41b6c4" opacity="0.9"/>
<rect x="232" y="360" width="26" height="0" fill="#41b6c4" opacity="0.9"/>
<rect x="259" y="359.861" width="26" height="0.139" fill="#41b6c4" opacity="0.9"/>
<rect x="286" y="360" width="26" height="0" fill="#41b6c4" opacity="0.9"/>
<rect x="313" y="360" width="26" height="0" fill="#41b6c4" opacity="0.9"/>
<rect x="340" y="358.613" width="26" height="1.387" fill="#41b6c4" opacity="0.9"/>
<rect x="367" y="360" width="26" height="0" fill="#41b6c4" opacity="0.9"/>
<rect x="394" y="359.168" width="26" height="0.832" fill="#41b6c4" opacity="0.9"/>
<rect x="421" y="358.474" width="26" height="1.526" fill="#41b6c4" opacity="0.9"/>
<rect x="448" y="360" width="26" height="0" fill="#41b6c4" opacity="0.9"/>
<rect x="475" y="358.336" width="26" height="1.664" fill="#41b6c4" opacity="0.9"/>
<rect x="502" y="358.752" width="26" height="1.248" fill="#41b6c4" opacity="0.9"/>
<rect x="529" y="359.168" width="26" height="0.832" fill="#41b6c4" opacity="0.9"/>
<rect x="556" y="357.087" width="26" height="2.913" fill="#41b6c4" opacity="0.9"/>
<rect x="583" y="357.642" width="26" height="2.358" fill="#41b6c4" opacity="0.9"/>
<rect x="610" y="355.562" width="26" height="4.438" fill="#41b6c4" opacity="0.9"/>
<rect x="637" y="356.949" width="26" height="3.051" fill="#41b6c4" opacity="0.9"/>
<rect x="664" y="355.7" width="26" height="4.3" fill="#41b6c4" opacity="0.9"/>
<rect x="691" y="353.204" width="26" height="6.796" fill="#41b6c4" opacity="0.9"/>
<rect x="718" y="353.62" width="26" height="6.38" fill="#41b6c4" opacity="0.9"/>
<rect x="745" y="348.765" width="26" height="11.235" fill="#41b6c4" opacity="0.9"/>
<rect x="772" y="339.056" width="26" height="20.944" fill="#41b6c4" opacity="0.9"/>
<rect x="799" y="330.18" width="26" height="29.82" fill="#41b6c4" opacity="0.9"/>
<rect x="826" y="279.693" width="26" height="80.307" fill="#41b6c4" opacity="0.9"/>
<rect x="853" y="55" width="26" height="305" fill="#41b6c4" opacity="0.9"/>
<line x1="889.939" y1="55" x2="889.939" y2="360" stroke="#d7301f" stroke-width="2"/>
<text x="450.0" y="400" text-anchor="middle" font-size="12" fill="#333">chars/token</text>
<text x="18" y="210.0" text-anchor="middle" font-size="12" fill="#333" transform="rotate(-90 18 210.0)">samples</text>
</svg>
