<svg xmlns="http://www.w3.org/2000/svg" width="900" height="420" viewBox="0 0 900 420">
<rect x="0" y="0" width="100%" height="100%" fill="#ffffff"/>
<style>text{font-family: ui-sans-serif, system-ui, -apple-system, Segoe UI, Roboto, Helvetica, Arial; fill:#111}</style>
<defs>
  <marker id="arrowhead" markerWidth="10" markerHeight="7" refX="9" refY="3.5" orient="auto">
    <polygon points="0 0, 10 3.5, 0 7" fill="#333" />
  </marker>
</defs>
<text x="450.0" y="28" text-anchor="middle" font-size="16">Prompt token counts in the measurement set (real, small sample)</text>
<line x1="70" y1="360" x2="880" y2="360" stroke="#333"/>
<line x1="70" y1="55" x2="70" y2="360" stroke="#333"/>
<rect x="70" y="55" width="56.857" height="305" fill="#41b6c4" opacity="0.9"/>
<rect x="127.857" y="360" width="56.857" height="0" fill="#41b6c4" opacity="0.9"/>
<rect x="185.714" y="360" width="56.857" height="0" fill="#41b6c4" opacity="0.9"/>
<rect x="243.571" y="55" width="56.857" height="305" fill="#41b6c4" opacity="0.9"/>
<rect x="301.429" y="55" width="56.857" height="305" fill="#41b6c4" opacity="0.9"/>
<rect x="359.286" y="360" width="56.857" height="0" fill="#41b6c4" opacity="0.9"/>
<rect x="417.143" y="360" width="56.857" height="0" fill="#41b6c4" opacity="0.9"/>
<rect x="475" y="360" width="56.857" height="0" fill="#41b6c4" opacity="0.9"/>
<rect x="532.857" y="360" width="56.857" height="0" fill="#41b6c4" opacity="0.9"/>
<rect x="590.714" y="360" width="56.857" height="0" fill="#41b6c4" opacity="0.9"/>
<rect x="648.571" y="360" width="56.857" height="0" fill="#41b6c4" opacity="0.9"/>
<rect x="706.429" y="360" width="56.857" height="0" fill="#41b6c4" opacity="0.9"/>
<rect x="764.286" y="360" width="56.857" height="0" fill="#41b6c4" opacity="0.9"/>
<rect x="822.143" y="55" width="56.857" height="305" fill="#41b6c4" opacity="0.9"/>
<line x1="762208.529" y1="55" x2="762208.529" y2="360" stroke="#d7301f" stroke-width="2"/>
<text x="450.0" y="400" text-anchor="middle" font-size="12" fill="#333">input tokens</text>
<text x="18" y="210.0" text-anchor="middle" font-size="12" fill="#333" transform="rotate(-90 18 210.0)">requests</text>
</svg>
