<svg xmlns="http://www.w3.org/2000/svg" width="900" height="420" viewBox="0 0 900 420">
<rect x="0" y="0" width="100%" height="100%" fill="#ffffff"/>
<style>text{font-family: ui-sans-serif, system-ui, -apple-system, Segoe UI, Roboto, Helvetica, Arial; fill:#111}</style>
<defs>
  <marker id="arrowhead" markerWidth="10" markerHeight="7" refX="9" refY="3.5" orient="auto">
    <polygon points="0 0, 10 3.5, 0 7" fill="#333" />
  </marker>
</defs>
<text x="450.0" y="28" text-anchor="middle" font-size="16">Synthetic prompt sizes: where you blow the context window</text>
<line x1="70" y1="360" x2="880" y2="360" stroke="#333"/>
<line x1="70" y1="55" x2="70" y2="360" stroke="#333"/>
<rect x="70" y="330.484" width="31.4" height="29.516" fill="#41b6c4" opacity="0.9"/>
<rect x="102.4" y="350.161" width="31.4" height="9.839" fill="#41b6c4" opacity="0.9"/>
<rect x="134.8" y="300.968" width="31.4" height="59.032" fill="#41b6c4" opacity="0.9"/>
<rect x="167.2" y="340.323" width="31.4" height="19.677" fill="#41b6c4" opacity="0.9"/>
<rect x="199.6" y="310.806" width="31.4" height="49.194" fill="#41b6c4" opacity="0.9"/>
<rect x="232" y="251.774" width="31.4" height="108.226" fill="#41b6c4" opacity="0.9"/>
<rect x="264.4" y="291.129" width="31.4" height="68.871" fill="#41b6c4" opacity="0.9"/>
<rect x="296.8" y="251.774" width="31.4" height="108.226" fill="#41b6c4" opacity="0.9"/>
<rect x="329.2" y="182.903" width="31.4" height="177.097" fill="#41b6c4" opacity="0.9"/>
<rect x="361.6" y="202.581" width="31.4" height="157.419" fill="#41b6c4" opacity="0.9"/>
<rect x="394" y="114.032" width="31.4" height="245.968" fill="#41b6c4" opacity="0.9"/>
<rect x="426.4" y="55" width="31.4" height="305" fill="#41b6c4" opacity="0.9"/>
<rect x="458.8" y="114.032" width="31.4" height="245.968" fill="#41b6c4" opacity="0.9"/>
<rect x="491.2" y="114.032" width="31.4" height="245.968" fill="#41b6c4" opacity="0.9"/>
<rect x="523.6" y="153.387" width="31.4" height="206.613" fill="#41b6c4" opacity="0.9"/>
<rect x="556" y="222.258" width="31.4" height="137.742" fill="#41b6c4" opacity="0.9"/>
<rect x="588.4" y="163.226" width="31.4" height="196.774" fill="#41b6c4" opacity="0.9"/>
<rect x="620.8" y="202.581" width="31.4" height="157.419" fill="#41b6c4" opacity="0.9"/>
<rect x="653.2" y="192.742" width="31.4" height="167.258" fill="#41b6c4" opacity="0.9"/>
<rect x="685.6" y="300.968" width="31.4" height="59.032" fill="#41b6c4" opacity="0.9"/>
<rect x="718" y="281.29" width="31.4" height="78.71" fill="#41b6c4" opacity="0.9"/>
<rect x="750.4" y="281.29" width="31.4" height="78.71" fill="#41b6c4" opacity="0.9"/>
<rect x="782.8" y="350.161" width="31.4" height="9.839" fill="#41b6c4" opacity="0.9"/>
<rect x="815.2" y="340.323" width="31.4" height="19.677" fill="#41b6c4" opacity="0.9"/>
<rect x="847.6" y="350.161" width="31.4" height="9.839" fill="#41b6c4" opacity="0.9"/>
<line x1="1025.614" y1="55" x2="1025.614" y2="360" stroke="#d7301f" stroke-width="2"/>
<text x="450.0" y="400" text-anchor="middle" font-size="12" fill="#333">tokens</text>
<text x="18" y="210.0" text-anchor="middle" font-size="12" fill="#333" transform="rotate(-90 18 210.0)">requests</text>
</svg>
