<svg xmlns="http://www.w3.org/2000/svg" width="900" height="420" viewBox="0 0 900 420">
<rect x="0" y="0" width="100%" height="100%" fill="#ffffff"/>
<style>text{font-family: ui-sans-serif, system-ui, -apple-system, Segoe UI, Roboto, Helvetica, Arial; fill:#111}</style>
<defs>
  <marker id="arrowhead" markerWidth="10" markerHeight="7" refX="9" refY="3.5" orient="auto">
    <polygon points="0 0, 10 3.5, 0 7" fill="#333" />
  </marker>
</defs>
<text x="450.0" y="28" text-anchor="middle" font-size="16">Utterance-level WER is heavy-tailed (synthetic)</text>
<line x1="70" y1="360" x2="880" y2="360" stroke="#333"/>
<line x1="70" y1="55" x2="70" y2="360" stroke="#333"/>
<rect x="70" y="89.379" width="26" height="270.621" fill="#41b6c4" opacity="0.9"/>
<rect x="97" y="55" width="26" height="305" fill="#41b6c4" opacity="0.9"/>
<rect x="124" y="114.942" width="26" height="245.058" fill="#41b6c4" opacity="0.9"/>
<rect x="151" y="125.52" width="26" height="234.48" fill="#41b6c4" opacity="0.9"/>
<rect x="178" y="161.662" width="26" height="198.338" fill="#41b6c4" opacity="0.9"/>
<rect x="205" y="207.5" width="26" height="152.5" fill="#41b6c4" opacity="0.9"/>
<rect x="232" y="220.723" width="26" height="139.277" fill="#41b6c4" opacity="0.9"/>
<rect x="259" y="232.182" width="26" height="127.818" fill="#41b6c4" opacity="0.9"/>
<rect x="286" y="255.983" width="26" height="104.017" fill="#41b6c4" opacity="0.9"/>
<rect x="313" y="272.731" width="26" height="87.269" fill="#41b6c4" opacity="0.9"/>
<rect x="340" y="286.835" width="26" height="73.165" fill="#41b6c4" opacity="0.9"/>
<rect x="367" y="320.332" width="26" height="39.668" fill="#41b6c4" opacity="0.9"/>
<rect x="394" y="316.806" width="26" height="43.194" fill="#41b6c4" opacity="0.9"/>
<rect x="421" y="331.792" width="26" height="28.208" fill="#41b6c4" opacity="0.9"/>
<rect x="448" y="332.673" width="26" height="27.327" fill="#41b6c4" opacity="0.9"/>
<rect x="475" y="352.066" width="26" height="7.934" fill="#41b6c4" opacity="0.9"/>
<rect x="502" y="350.303" width="26" height="9.697" fill="#41b6c4" opacity="0.9"/>
<rect x="529" y="354.711" width="26" height="5.289" fill="#41b6c4" opacity="0.9"/>
<rect x="556" y="348.54" width="26" height="11.46" fill="#41b6c4" opacity="0.9"/>
<rect x="583" y="349.422" width="26" height="10.578" fill="#41b6c4" opacity="0.9"/>
<rect x="610" y="353.829" width="26" height="6.171" fill="#41b6c4" opacity="0.9"/>
<rect x="637" y="351.185" width="26" height="8.815" fill="#41b6c4" opacity="0.9"/>
<rect x="664" y="351.185" width="26" height="8.815" fill="#41b6c4" opacity="0.9"/>
<rect x="691" y="350.303" width="26" height="9.697" fill="#41b6c4" opacity="0.9"/>
<rect x="718" y="349.422" width="26" height="10.578" fill="#41b6c4" opacity="0.9"/>
<rect x="745" y="355.592" width="26" height="4.408" fill="#41b6c4" opacity="0.9"/>
<rect x="772" y="351.185" width="26" height="8.815" fill="#41b6c4" opacity="0.9"/>
<rect x="799" y="353.829" width="26" height="6.171" fill="#41b6c4" opacity="0.9"/>
<rect x="826" y="350.303" width="26" height="9.697" fill="#41b6c4" opacity="0.9"/>
<rect x="853" y="350.303" width="26" height="9.697" fill="#41b6c4" opacity="0.9"/>
<text x="450.0" y="400" text-anchor="middle" font-size="12" fill="#333">utterance WER</text>
<text x="18" y="210.0" text-anchor="middle" font-size="12" fill="#333" transform="rotate(-90 18 210.0)">count</text>
</svg>
