<svg xmlns="http://www.w3.org/2000/svg" width="900" height="420" viewBox="0 0 900 420">
<rect x="0" y="0" width="100%" height="100%" fill="#ffffff"/>
<style>text{font-family: ui-sans-serif, system-ui, -apple-system, Segoe UI, Roboto, Helvetica, Arial; fill:#111}</style>
<defs>
  <marker id="arrowhead" markerWidth="10" markerHeight="7" refX="9" refY="3.5" orient="auto">
    <polygon points="0 0, 10 3.5, 0 7" fill="#333" />
  </marker>
</defs>
<text x="450.0" y="28" text-anchor="middle" font-size="16">WER vs noise: domain shift adds an irreducible floor (synthetic)</text>
<line x1="70" y1="360" x2="880" y2="360" stroke="#333"/>
<line x1="70" y1="55" x2="70" y2="360" stroke="#333"/>
<line x1="70" y1="55" x2="880" y2="55" stroke="#eee"/>
<text x="62" y="59" text-anchor="end" font-size="11" fill="#444">0.764</text>
<line x1="70" y1="116" x2="880" y2="116" stroke="#eee"/>
<text x="62" y="120" text-anchor="end" font-size="11" fill="#444">0.632</text>
<line x1="70" y1="177" x2="880" y2="177" stroke="#eee"/>
<text x="62" y="181" text-anchor="end" font-size="11" fill="#444">0.501</text>
<line x1="70" y1="238" x2="880" y2="238" stroke="#eee"/>
<text x="62" y="242" text-anchor="end" font-size="11" fill="#444">0.369</text>
<line x1="70" y1="299" x2="880" y2="299" stroke="#eee"/>
<text x="62" y="303" text-anchor="end" font-size="11" fill="#444">0.237</text>
<line x1="70" y1="360" x2="880" y2="360" stroke="#eee"/>
<text x="62" y="364" text-anchor="end" font-size="11" fill="#444">0.106</text>
<line x1="70" y1="55" x2="70" y2="360" stroke="#f3f3f3"/>
<text x="70" y="378" text-anchor="middle" font-size="11" fill="#444">0</text>
<line x1="232" y1="55" x2="232" y2="360" stroke="#f3f3f3"/>
<text x="232" y="378" text-anchor="middle" font-size="11" fill="#444">6</text>
<line x1="394" y1="55" x2="394" y2="360" stroke="#f3f3f3"/>
<text x="394" y="378" text-anchor="middle" font-size="11" fill="#444">12</text>
<line x1="556" y1="55" x2="556" y2="360" stroke="#f3f3f3"/>
<text x="556" y="378" text-anchor="middle" font-size="11" fill="#444">18</text>
<line x1="718" y1="55" x2="718" y2="360" stroke="#f3f3f3"/>
<text x="718" y="378" text-anchor="middle" font-size="11" fill="#444">24</text>
<line x1="880" y1="55" x2="880" y2="360" stroke="#f3f3f3"/>
<text x="880" y="378" text-anchor="middle" font-size="11" fill="#444">30</text>
<text x="450.0" y="400" text-anchor="middle" font-size="12" fill="#333">SNR (dB)</text>
<text x="18" y="210.0" text-anchor="middle" font-size="12" fill="#333" transform="rotate(-90 18 210.0)">WER</text>
<polyline points="70,130.072 83.5,135.22 97,153.622 110.5,152.132 124,158.737 137.5,174.649 151,178.739 164.5,187.432 178,197.976 191.5,207.402 205,219.797 218.5,210.541 232,223.734 245.5,218.008 259,231.81 272.5,240.06 286,249.878 299.5,245.648 313,259.51 326.5,254.753 340,268.548 353.5,270.331 367,282.563 380.5,268.794 394,284.071 407.5,289.246 421,287.381 434.5,298.801 448,294.507 461.5,306.753 475,301.931 488.5,312.307 502,318.873 515.5,315.89 529,322.592 542.5,315.809 556,320.737 569.5,320.845 583,325.057 596.5,329.306 610,329.636 623.5,326.907 637,334.571 650.5,339.116 664,341.869 677.5,340.122 691,344.22 704.5,333.618 718,349.32 731.5,350.335 745,348.148 758.5,345.071 772,350.625 785.5,355.07 799,355.57 812.5,354.609 826,349.58 839.5,359.687 853,356.6 866.5,360 880,356.598" fill="none" stroke="#2c7fb8" stroke-width="2"/>
<polyline points="70,55 83.5,73.99 97,66.143 110.5,85.985 124,98.552 137.5,109.341 151,115.098 164.5,122.145 178,127.644 191.5,138.206 205,143.55 218.5,160.554 232,163.629 245.5,171.614 259,172.76 272.5,177.747 286,192.792 299.5,192.694 313,194.268 326.5,198.907 340,213.644 353.5,211.012 367,217.02 380.5,225.405 394,218.92 407.5,237.674 421,238.094 434.5,238.871 448,243.879 461.5,249.687 475,246.267 488.5,249.576 502,255.545 515.5,258.513 529,266.673 542.5,274.968 556,262.475 569.5,279.989 583,268.059 596.5,281.719 610,282.701 623.5,287.114 637,284.357 650.5,293.534 664,284.938 677.5,293.221 691,297.036 704.5,302.558 718,300.615 731.5,303.861 745,296.906 758.5,303.173 772,316.479 785.5,303.842 799,323.547 812.5,306.974 826,324.365 839.5,317.081 853,314.729 866.5,319.89 880,326.257" fill="none" stroke="#d7301f" stroke-width="2"/>
<line x1="80" y1="65" x2="98" y2="65" stroke="#2c7fb8" stroke-width="3"/>
<text x="104" y="69" font-size="12" fill="#222">general</text>
<line x1="80" y1="83" x2="98" y2="83" stroke="#d7301f" stroke-width="3"/>
<text x="104" y="87" font-size="12" fill="#222">domain-shifted</text>
</svg>
