<svg xmlns="http://www.w3.org/2000/svg" width="1000" height="420" viewBox="0 0 1000 420">
<rect x="0" y="0" width="100%" height="100%" fill="#ffffff"/>
<style>text{font-family: ui-sans-serif, system-ui, -apple-system, Segoe UI, Roboto, Helvetica, Arial; fill:#111}</style>
<defs>
  <marker id="arrowhead" markerWidth="10" markerHeight="7" refX="9" refY="3.5" orient="auto">
    <polygon points="0 0, 10 3.5, 0 7" fill="#333" />
  </marker>
</defs>
<text x="500.0" y="28" text-anchor="middle" font-size="16">6/49 lottery: deviation from expected frequency (fair simulation)</text>
<line x1="70" y1="360" x2="980" y2="360" stroke="#333"/>
<line x1="70" y1="55" x2="70" y2="360" stroke="#333"/>
<line x1="70" y1="216.746" x2="980" y2="216.746" stroke="#111" stroke-width="1" opacity="0.6"/>
<rect x="70" y="216.746" width="17.086" height="117.558" fill="#2c7fb8" opacity="0.9"/>
<rect x="88.571" y="206.941" width="17.086" height="9.804" fill="#2c7fb8" opacity="0.9"/>
<rect x="107.143" y="198.004" width="17.086" height="18.742" fill="#2c7fb8" opacity="0.9"/>
<rect x="125.714" y="216.746" width="17.086" height="58.346" fill="#2c7fb8" opacity="0.9"/>
<rect x="144.286" y="216.746" width="17.086" height="92.98" fill="#2c7fb8" opacity="0.9"/>
<rect x="162.857" y="157.784" width="17.086" height="58.962" fill="#2c7fb8" opacity="0.9"/>
<rect x="181.429" y="216.746" width="17.086" height="98.566" fill="#2c7fb8" opacity="0.9"/>
<rect x="200" y="168.956" width="17.086" height="47.789" fill="#2c7fb8" opacity="0.9"/>
<rect x="218.571" y="216.746" width="17.086" height="143.254" fill="#2c7fb8" opacity="0.9"/>
<rect x="237.143" y="216.746" width="17.086" height="5.837" fill="#2c7fb8" opacity="0.9"/>
<rect x="255.714" y="164.487" width="17.086" height="52.258" fill="#2c7fb8" opacity="0.9"/>
<rect x="274.286" y="183.48" width="17.086" height="33.266" fill="#2c7fb8" opacity="0.9"/>
<rect x="292.857" y="216.746" width="17.086" height="76.221" fill="#2c7fb8" opacity="0.9"/>
<rect x="311.429" y="141.026" width="17.086" height="75.72" fill="#2c7fb8" opacity="0.9"/>
<rect x="330" y="216.746" width="17.086" height="103.035" fill="#2c7fb8" opacity="0.9"/>
<rect x="348.571" y="216.746" width="17.086" height="51.643" fill="#2c7fb8" opacity="0.9"/>
<rect x="367.143" y="168.956" width="17.086" height="47.789" fill="#2c7fb8" opacity="0.9"/>
<rect x="385.714" y="216.746" width="17.086" height="3.602" fill="#2c7fb8" opacity="0.9"/>
<rect x="404.286" y="55" width="17.086" height="161.746" fill="#2c7fb8" opacity="0.9"/>
<rect x="422.857" y="216.746" width="17.086" height="52.76" fill="#2c7fb8" opacity="0.9"/>
<rect x="441.429" y="216.746" width="17.086" height="66.167" fill="#2c7fb8" opacity="0.9"/>
<rect x="460" y="216.746" width="17.086" height="17.009" fill="#2c7fb8" opacity="0.9"/>
<rect x="478.571" y="204.707" width="17.086" height="12.039" fill="#2c7fb8" opacity="0.9"/>
<rect x="497.143" y="216.746" width="17.086" height="47.174" fill="#2c7fb8" opacity="0.9"/>
<rect x="515.714" y="216.746" width="17.086" height="34.885" fill="#2c7fb8" opacity="0.9"/>
<rect x="534.286" y="216.746" width="17.086" height="5.837" fill="#2c7fb8" opacity="0.9"/>
<rect x="552.857" y="164.487" width="17.086" height="52.258" fill="#2c7fb8" opacity="0.9"/>
<rect x="571.429" y="216.746" width="17.086" height="42.705" fill="#2c7fb8" opacity="0.9"/>
<rect x="590" y="152.198" width="17.086" height="64.548" fill="#2c7fb8" opacity="0.9"/>
<rect x="608.571" y="148.846" width="17.086" height="67.899" fill="#2c7fb8" opacity="0.9"/>
<rect x="627.143" y="202.473" width="17.086" height="14.273" fill="#2c7fb8" opacity="0.9"/>
<rect x="645.714" y="177.894" width="17.086" height="38.852" fill="#2c7fb8" opacity="0.9"/>
<rect x="664.286" y="158.901" width="17.086" height="57.844" fill="#2c7fb8" opacity="0.9"/>
<rect x="682.857" y="143.26" width="17.086" height="73.485" fill="#2c7fb8" opacity="0.9"/>
<rect x="701.429" y="187.949" width="17.086" height="28.797" fill="#2c7fb8" opacity="0.9"/>
<rect x="720" y="163.37" width="17.086" height="53.376" fill="#2c7fb8" opacity="0.9"/>
<rect x="738.571" y="216.746" width="17.086" height="15.892" fill="#2c7fb8" opacity="0.9"/>
<rect x="757.143" y="216.746" width="17.086" height="53.877" fill="#2c7fb8" opacity="0.9"/>
<rect x="775.714" y="216.746" width="17.086" height="42.705" fill="#2c7fb8" opacity="0.9"/>
<rect x="794.286" y="206.941" width="17.086" height="9.804" fill="#2c7fb8" opacity="0.9"/>
<rect x="812.857" y="144.377" width="17.086" height="72.368" fill="#2c7fb8" opacity="0.9"/>
<rect x="831.429" y="216.746" width="17.086" height="2.485" fill="#2c7fb8" opacity="0.9"/>
<rect x="850" y="216.746" width="17.086" height="15.892" fill="#2c7fb8" opacity="0.9"/>
<rect x="868.571" y="216.746" width="17.086" height="1.368" fill="#2c7fb8" opacity="0.9"/>
<rect x="887.143" y="161.136" width="17.086" height="55.61" fill="#2c7fb8" opacity="0.9"/>
<rect x="905.714" y="216.746" width="17.086" height="27.064" fill="#2c7fb8" opacity="0.9"/>
<rect x="924.286" y="185.714" width="17.086" height="31.031" fill="#2c7fb8" opacity="0.9"/>
<rect x="942.857" y="156.667" width="17.086" height="60.079" fill="#2c7fb8" opacity="0.9"/>
<rect x="961.429" y="216.746" width="17.086" height="21.478" fill="#2c7fb8" opacity="0.9"/>
<text x="500.0" y="400" text-anchor="middle" font-size="12" fill="#333">ball</text>
<text x="18" y="210.0" text-anchor="middle" font-size="12" fill="#333" transform="rotate(-90 18 210.0)">count − expected</text>
</svg>
