<?xml version="1.0" encoding="utf-8" standalone="no"?>
<!DOCTYPE svg PUBLIC "-//W3C//DTD SVG 1.1//EN"
  "http://www.w3.org/Graphics/SVG/1.1/DTD/svg11.dtd">
<svg xmlns:xlink="http://www.w3.org/1999/xlink" width="756pt" height="302.4pt" viewBox="0 0 756 302.4" xmlns="http://www.w3.org/2000/svg" version="1.1">
 <metadata>
  <rdf:RDF xmlns:dc="http://purl.org/dc/elements/1.1/" xmlns:cc="http://creativecommons.org/ns#" xmlns:rdf="http://www.w3.org/1999/02/22-rdf-syntax-ns#">
   <cc:Work>
    <dc:type rdf:resource="http://purl.org/dc/dcmitype/StillImage"/>
    <dc:date>2026-01-31T17:13:46.649887</dc:date>
    <dc:format>image/svg+xml</dc:format>
    <dc:creator>
     <cc:Agent>
      <dc:title>Matplotlib v3.9.2, https://matplotlib.org/</dc:title>
     </cc:Agent>
    </dc:creator>
   </cc:Work>
  </rdf:RDF>
 </metadata>
 <defs>
  <style type="text/css">*{stroke-linejoin: round; stroke-linecap: butt}</style>
 </defs>
 <g id="figure_1">
  <g id="patch_1">
   <path d="M 0 302.4 
L 756 302.4 
L 756 0 
L 0 0 
z
" style="fill: #ffffff"/>
  </g>
  <g id="axes_1">
   <g id="patch_2">
    <path d="M 53.66 259.72 
L 745.2 259.72 
L 745.2 26.88 
L 53.66 26.88 
z
" style="fill: #ffffff"/>
   </g>
   <g id="patch_3">
    <path d="M 85.093636 131.540404 
L 98.597346 131.540404 
L 98.597346 123.700673 
L 85.093636 123.700673 
z
" clip-path="url(#pff4b14269e)" style="fill: #2c7fb8; opacity: 0.9"/>
   </g>
   <g id="patch_4">
    <path d="M 100.097759 131.540404 
L 113.601469 131.540404 
L 113.601469 147.219865 
L 100.097759 147.219865 
z
" clip-path="url(#pff4b14269e)" style="fill: #2c7fb8; opacity: 0.9"/>
   </g>
   <g id="patch_5">
    <path d="M 115.101881 131.540404 
L 128.605591 131.540404 
L 128.605591 100.181481 
L 115.101881 100.181481 
z
" clip-path="url(#pff4b14269e)" style="fill: #2c7fb8; opacity: 0.9"/>
   </g>
   <g id="patch_6">
    <path d="M 130.106003 131.540404 
L 143.609714 131.540404 
L 143.609714 100.181481 
L 130.106003 100.181481 
z
" clip-path="url(#pff4b14269e)" style="fill: #2c7fb8; opacity: 0.9"/>
   </g>
   <g id="patch_7">
    <path d="M 145.110126 131.540404 
L 158.613836 131.540404 
L 158.613836 186.418519 
L 145.110126 186.418519 
z
" clip-path="url(#pff4b14269e)" style="fill: #2c7fb8; opacity: 0.9"/>
   </g>
   <g id="patch_8">
    <path d="M 160.114248 131.540404 
L 173.617958 131.540404 
L 173.617958 147.219865 
L 160.114248 147.219865 
z
" clip-path="url(#pff4b14269e)" style="fill: #2c7fb8; opacity: 0.9"/>
   </g>
   <g id="patch_9">
    <path d="M 175.118371 131.540404 
L 188.622081 131.540404 
L 188.622081 100.181481 
L 175.118371 100.181481 
z
" clip-path="url(#pff4b14269e)" style="fill: #2c7fb8; opacity: 0.9"/>
   </g>
   <g id="patch_10">
    <path d="M 190.122493 131.540404 
L 203.626203 131.540404 
L 203.626203 123.700673 
L 190.122493 123.700673 
z
" clip-path="url(#pff4b14269e)" style="fill: #2c7fb8; opacity: 0.9"/>
   </g>
   <g id="patch_11">
    <path d="M 205.126615 131.540404 
L 218.630325 131.540404 
L 218.630325 100.181481 
L 205.126615 100.181481 
z
" clip-path="url(#pff4b14269e)" style="fill: #2c7fb8; opacity: 0.9"/>
   </g>
   <g id="patch_12">
    <path d="M 220.130738 131.540404 
L 233.634448 131.540404 
L 233.634448 100.181481 
L 220.130738 100.181481 
z
" clip-path="url(#pff4b14269e)" style="fill: #2c7fb8; opacity: 0.9"/>
   </g>
   <g id="patch_13">
    <path d="M 235.13486 131.540404 
L 248.63857 131.540404 
L 248.63857 162.899327 
L 235.13486 162.899327 
z
" clip-path="url(#pff4b14269e)" style="fill: #2c7fb8; opacity: 0.9"/>
   </g>
   <g id="patch_14">
    <path d="M 250.138982 131.540404 
L 263.642693 131.540404 
L 263.642693 123.700673 
L 250.138982 123.700673 
z
" clip-path="url(#pff4b14269e)" style="fill: #2c7fb8; opacity: 0.9"/>
   </g>
   <g id="patch_15">
    <path d="M 265.143105 131.540404 
L 278.646815 131.540404 
L 278.646815 92.341751 
L 265.143105 92.341751 
z
" clip-path="url(#pff4b14269e)" style="fill: #2c7fb8; opacity: 0.9"/>
   </g>
   <g id="patch_16">
    <path d="M 280.147227 131.540404 
L 293.650937 131.540404 
L 293.650937 178.578788 
L 280.147227 178.578788 
z
" clip-path="url(#pff4b14269e)" style="fill: #2c7fb8; opacity: 0.9"/>
   </g>
   <g id="patch_17">
    <path d="M 295.15135 131.540404 
L 308.65506 131.540404 
L 308.65506 115.860943 
L 295.15135 115.860943 
z
" clip-path="url(#pff4b14269e)" style="fill: #2c7fb8; opacity: 0.9"/>
   </g>
   <g id="patch_18">
    <path d="M 310.155472 131.540404 
L 323.659182 131.540404 
L 323.659182 76.66229 
L 310.155472 76.66229 
z
" clip-path="url(#pff4b14269e)" style="fill: #2c7fb8; opacity: 0.9"/>
   </g>
   <g id="patch_19">
    <path d="M 325.159594 131.540404 
L 338.663304 131.540404 
L 338.663304 76.66229 
L 325.159594 76.66229 
z
" clip-path="url(#pff4b14269e)" style="fill: #2c7fb8; opacity: 0.9"/>
   </g>
   <g id="patch_20">
    <path d="M 340.163717 131.540404 
L 353.667427 131.540404 
L 353.667427 249.136364 
L 340.163717 249.136364 
z
" clip-path="url(#pff4b14269e)" style="fill: #d7301f; opacity: 0.9"/>
   </g>
   <g id="patch_21">
    <path d="M 355.167839 131.540404 
L 368.671549 131.540404 
L 368.671549 123.700673 
L 355.167839 123.700673 
z
" clip-path="url(#pff4b14269e)" style="fill: #2c7fb8; opacity: 0.9"/>
   </g>
   <g id="patch_22">
    <path d="M 370.171961 131.540404 
L 383.675672 131.540404 
L 383.675672 162.899327 
L 370.171961 162.899327 
z
" clip-path="url(#pff4b14269e)" style="fill: #2c7fb8; opacity: 0.9"/>
   </g>
   <g id="patch_23">
    <path d="M 385.176084 131.540404 
L 398.679794 131.540404 
L 398.679794 170.739057 
L 385.176084 170.739057 
z
" clip-path="url(#pff4b14269e)" style="fill: #2c7fb8; opacity: 0.9"/>
   </g>
   <g id="patch_24">
    <path d="M 400.180206 131.540404 
L 413.683916 131.540404 
L 413.683916 139.380135 
L 400.180206 139.380135 
z
" clip-path="url(#pff4b14269e)" style="fill: #2c7fb8; opacity: 0.9"/>
   </g>
   <g id="patch_25">
    <path d="M 415.184328 131.540404 
L 428.688039 131.540404 
L 428.688039 147.219865 
L 415.184328 147.219865 
z
" clip-path="url(#pff4b14269e)" style="fill: #2c7fb8; opacity: 0.9"/>
   </g>
   <g id="patch_26">
    <path d="M 430.188451 131.540404 
L 443.692161 131.540404 
L 443.692161 123.700673 
L 430.188451 123.700673 
z
" clip-path="url(#pff4b14269e)" style="fill: #2c7fb8; opacity: 0.9"/>
   </g>
   <g id="patch_27">
    <path d="M 445.192573 131.540404 
L 458.696283 131.540404 
L 458.696283 131.540404 
L 445.192573 131.540404 
z
" clip-path="url(#pff4b14269e)" style="fill: #2c7fb8; opacity: 0.9"/>
   </g>
   <g id="patch_28">
    <path d="M 460.196696 131.540404 
L 473.700406 131.540404 
L 473.700406 155.059596 
L 460.196696 155.059596 
z
" clip-path="url(#pff4b14269e)" style="fill: #2c7fb8; opacity: 0.9"/>
   </g>
   <g id="patch_29">
    <path d="M 475.200818 131.540404 
L 488.704528 131.540404 
L 488.704528 139.380135 
L 475.200818 139.380135 
z
" clip-path="url(#pff4b14269e)" style="fill: #2c7fb8; opacity: 0.9"/>
   </g>
   <g id="patch_30">
    <path d="M 490.20494 131.540404 
L 503.70865 131.540404 
L 503.70865 131.540404 
L 490.20494 131.540404 
z
" clip-path="url(#pff4b14269e)" style="fill: #2c7fb8; opacity: 0.9"/>
   </g>
   <g id="patch_31">
    <path d="M 505.209063 131.540404 
L 518.712773 131.540404 
L 518.712773 108.021212 
L 505.209063 108.021212 
z
" clip-path="url(#pff4b14269e)" style="fill: #2c7fb8; opacity: 0.9"/>
   </g>
   <g id="patch_32">
    <path d="M 520.213185 131.540404 
L 533.716895 131.540404 
L 533.716895 108.021212 
L 520.213185 108.021212 
z
" clip-path="url(#pff4b14269e)" style="fill: #2c7fb8; opacity: 0.9"/>
   </g>
   <g id="patch_33">
    <path d="M 535.217307 131.540404 
L 548.721018 131.540404 
L 548.721018 131.540404 
L 535.217307 131.540404 
z
" clip-path="url(#pff4b14269e)" style="fill: #2c7fb8; opacity: 0.9"/>
   </g>
   <g id="patch_34">
    <path d="M 550.22143 131.540404 
L 563.72514 131.540404 
L 563.72514 147.219865 
L 550.22143 147.219865 
z
" clip-path="url(#pff4b14269e)" style="fill: #2c7fb8; opacity: 0.9"/>
   </g>
   <g id="patch_35">
    <path d="M 565.225552 131.540404 
L 578.729262 131.540404 
L 578.729262 84.50202 
L 565.225552 84.50202 
z
" clip-path="url(#pff4b14269e)" style="fill: #2c7fb8; opacity: 0.9"/>
   </g>
   <g id="patch_36">
    <path d="M 580.229675 131.540404 
L 593.733385 131.540404 
L 593.733385 147.219865 
L 580.229675 147.219865 
z
" clip-path="url(#pff4b14269e)" style="fill: #2c7fb8; opacity: 0.9"/>
   </g>
   <g id="patch_37">
    <path d="M 595.233797 131.540404 
L 608.737507 131.540404 
L 608.737507 37.463636 
L 595.233797 37.463636 
z
" clip-path="url(#pff4b14269e)" style="fill: #2c7fb8; opacity: 0.9"/>
   </g>
   <g id="patch_38">
    <path d="M 610.237919 131.540404 
L 623.741629 131.540404 
L 623.741629 202.09798 
L 610.237919 202.09798 
z
" clip-path="url(#pff4b14269e)" style="fill: #2c7fb8; opacity: 0.9"/>
   </g>
   <g id="patch_39">
    <path d="M 625.242042 131.540404 
L 638.745752 131.540404 
L 638.745752 131.540404 
L 625.242042 131.540404 
z
" clip-path="url(#pff4b14269e)" style="fill: #2c7fb8; opacity: 0.9"/>
   </g>
   <g id="patch_40">
    <path d="M 640.246164 131.540404 
L 653.749874 131.540404 
L 653.749874 186.418519 
L 640.246164 186.418519 
z
" clip-path="url(#pff4b14269e)" style="fill: #2c7fb8; opacity: 0.9"/>
   </g>
   <g id="patch_41">
    <path d="M 655.250286 131.540404 
L 668.753997 131.540404 
L 668.753997 131.540404 
L 655.250286 131.540404 
z
" clip-path="url(#pff4b14269e)" style="fill: #2c7fb8; opacity: 0.9"/>
   </g>
   <g id="patch_42">
    <path d="M 670.254409 131.540404 
L 683.758119 131.540404 
L 683.758119 76.66229 
L 670.254409 76.66229 
z
" clip-path="url(#pff4b14269e)" style="fill: #2c7fb8; opacity: 0.9"/>
   </g>
   <g id="patch_43">
    <path d="M 685.258531 131.540404 
L 698.762241 131.540404 
L 698.762241 131.540404 
L 685.258531 131.540404 
z
" clip-path="url(#pff4b14269e)" style="fill: #2c7fb8; opacity: 0.9"/>
   </g>
   <g id="patch_44">
    <path d="M 700.262654 131.540404 
L 713.766364 131.540404 
L 713.766364 170.739057 
L 700.262654 170.739057 
z
" clip-path="url(#pff4b14269e)" style="fill: #2c7fb8; opacity: 0.9"/>
   </g>
   <g id="matplotlib.axis_1">
    <g id="xtick_1">
     <g id="line2d_1">
      <defs>
       <path id="madeda1cdce" d="M 0 0 
L 0 3.5 
" style="stroke: #000000; stroke-width: 0.8"/>
      </defs>
      <g>
       <use xlink:href="#madeda1cdce" x="76.841369" y="259.72" style="stroke: #000000; stroke-width: 0.8"/>
      </g>
     </g>
     <g id="text_1">
      <!-- 0 -->
      <g transform="translate(73.660119 274.318438) scale(0.1 -0.1)">
       <defs>
        <path id="DejaVuSans-30" d="M 2034 4250 
Q 1547 4250 1301 3770 
Q 1056 3291 1056 2328 
Q 1056 1369 1301 889 
Q 1547 409 2034 409 
Q 2525 409 2770 889 
Q 3016 1369 3016 2328 
Q 3016 3291 2770 3770 
Q 2525 4250 2034 4250 
z
M 2034 4750 
Q 2819 4750 3233 4129 
Q 3647 3509 3647 2328 
Q 3647 1150 3233 529 
Q 2819 -91 2034 -91 
Q 1250 -91 836 529 
Q 422 1150 422 2328 
Q 422 3509 836 4129 
Q 1250 4750 2034 4750 
z
" transform="scale(0.015625)"/>
       </defs>
       <use xlink:href="#DejaVuSans-30"/>
      </g>
     </g>
    </g>
    <g id="xtick_2">
     <g id="line2d_2">
      <g>
       <use xlink:href="#madeda1cdce" x="226.882593" y="259.72" style="stroke: #000000; stroke-width: 0.8"/>
      </g>
     </g>
     <g id="text_2">
      <!-- 10 -->
      <g transform="translate(220.520093 274.318438) scale(0.1 -0.1)">
       <defs>
        <path id="DejaVuSans-31" d="M 794 531 
L 1825 531 
L 1825 4091 
L 703 3866 
L 703 4441 
L 1819 4666 
L 2450 4666 
L 2450 531 
L 3481 531 
L 3481 0 
L 794 0 
L 794 531 
z
" transform="scale(0.015625)"/>
       </defs>
       <use xlink:href="#DejaVuSans-31"/>
       <use xlink:href="#DejaVuSans-30" x="63.623047"/>
      </g>
     </g>
    </g>
    <g id="xtick_3">
     <g id="line2d_3">
      <g>
       <use xlink:href="#madeda1cdce" x="376.923816" y="259.72" style="stroke: #000000; stroke-width: 0.8"/>
      </g>
     </g>
     <g id="text_3">
      <!-- 20 -->
      <g transform="translate(370.561316 274.318438) scale(0.1 -0.1)">
       <defs>
        <path id="DejaVuSans-32" d="M 1228 531 
L 3431 531 
L 3431 0 
L 469 0 
L 469 531 
Q 828 903 1448 1529 
Q 2069 2156 2228 2338 
Q 2531 2678 2651 2914 
Q 2772 3150 2772 3378 
Q 2772 3750 2511 3984 
Q 2250 4219 1831 4219 
Q 1534 4219 1204 4116 
Q 875 4013 500 3803 
L 500 4441 
Q 881 4594 1212 4672 
Q 1544 4750 1819 4750 
Q 2544 4750 2975 4387 
Q 3406 4025 3406 3419 
Q 3406 3131 3298 2873 
Q 3191 2616 2906 2266 
Q 2828 2175 2409 1742 
Q 1991 1309 1228 531 
z
" transform="scale(0.015625)"/>
       </defs>
       <use xlink:href="#DejaVuSans-32"/>
       <use xlink:href="#DejaVuSans-30" x="63.623047"/>
      </g>
     </g>
    </g>
    <g id="xtick_4">
     <g id="line2d_4">
      <g>
       <use xlink:href="#madeda1cdce" x="526.96504" y="259.72" style="stroke: #000000; stroke-width: 0.8"/>
      </g>
     </g>
     <g id="text_4">
      <!-- 30 -->
      <g transform="translate(520.60254 274.318438) scale(0.1 -0.1)">
       <defs>
        <path id="DejaVuSans-33" d="M 2597 2516 
Q 3050 2419 3304 2112 
Q 3559 1806 3559 1356 
Q 3559 666 3084 287 
Q 2609 -91 1734 -91 
Q 1441 -91 1130 -33 
Q 819 25 488 141 
L 488 750 
Q 750 597 1062 519 
Q 1375 441 1716 441 
Q 2309 441 2620 675 
Q 2931 909 2931 1356 
Q 2931 1769 2642 2001 
Q 2353 2234 1838 2234 
L 1294 2234 
L 1294 2753 
L 1863 2753 
Q 2328 2753 2575 2939 
Q 2822 3125 2822 3475 
Q 2822 3834 2567 4026 
Q 2313 4219 1838 4219 
Q 1578 4219 1281 4162 
Q 984 4106 628 3988 
L 628 4550 
Q 988 4650 1302 4700 
Q 1616 4750 1894 4750 
Q 2613 4750 3031 4423 
Q 3450 4097 3450 3541 
Q 3450 3153 3228 2886 
Q 3006 2619 2597 2516 
z
" transform="scale(0.015625)"/>
       </defs>
       <use xlink:href="#DejaVuSans-33"/>
       <use xlink:href="#DejaVuSans-30" x="63.623047"/>
      </g>
     </g>
    </g>
    <g id="xtick_5">
     <g id="line2d_5">
      <g>
       <use xlink:href="#madeda1cdce" x="677.006264" y="259.72" style="stroke: #000000; stroke-width: 0.8"/>
      </g>
     </g>
     <g id="text_5">
      <!-- 40 -->
      <g transform="translate(670.643764 274.318438) scale(0.1 -0.1)">
       <defs>
        <path id="DejaVuSans-34" d="M 2419 4116 
L 825 1625 
L 2419 1625 
L 2419 4116 
z
M 2253 4666 
L 3047 4666 
L 3047 1625 
L 3713 1625 
L 3713 1100 
L 3047 1100 
L 3047 0 
L 2419 0 
L 2419 1100 
L 313 1100 
L 313 1709 
L 2253 4666 
z
" transform="scale(0.015625)"/>
       </defs>
       <use xlink:href="#DejaVuSans-34"/>
       <use xlink:href="#DejaVuSans-30" x="63.623047"/>
      </g>
     </g>
    </g>
    <g id="text_6">
     <!-- ball -->
     <g transform="translate(389.511953 288.756406) scale(0.11 -0.11)">
      <defs>
       <path id="DejaVuSans-62" d="M 3116 1747 
Q 3116 2381 2855 2742 
Q 2594 3103 2138 3103 
Q 1681 3103 1420 2742 
Q 1159 2381 1159 1747 
Q 1159 1113 1420 752 
Q 1681 391 2138 391 
Q 2594 391 2855 752 
Q 3116 1113 3116 1747 
z
M 1159 2969 
Q 1341 3281 1617 3432 
Q 1894 3584 2278 3584 
Q 2916 3584 3314 3078 
Q 3713 2572 3713 1747 
Q 3713 922 3314 415 
Q 2916 -91 2278 -91 
Q 1894 -91 1617 61 
Q 1341 213 1159 525 
L 1159 0 
L 581 0 
L 581 4863 
L 1159 4863 
L 1159 2969 
z
" transform="scale(0.015625)"/>
       <path id="DejaVuSans-61" d="M 2194 1759 
Q 1497 1759 1228 1600 
Q 959 1441 959 1056 
Q 959 750 1161 570 
Q 1363 391 1709 391 
Q 2188 391 2477 730 
Q 2766 1069 2766 1631 
L 2766 1759 
L 2194 1759 
z
M 3341 1997 
L 3341 0 
L 2766 0 
L 2766 531 
Q 2569 213 2275 61 
Q 1981 -91 1556 -91 
Q 1019 -91 701 211 
Q 384 513 384 1019 
Q 384 1609 779 1909 
Q 1175 2209 1959 2209 
L 2766 2209 
L 2766 2266 
Q 2766 2663 2505 2880 
Q 2244 3097 1772 3097 
Q 1472 3097 1187 3025 
Q 903 2953 641 2809 
L 641 3341 
Q 956 3463 1253 3523 
Q 1550 3584 1831 3584 
Q 2591 3584 2966 3190 
Q 3341 2797 3341 1997 
z
" transform="scale(0.015625)"/>
       <path id="DejaVuSans-6c" d="M 603 4863 
L 1178 4863 
L 1178 0 
L 603 0 
L 603 4863 
z
" transform="scale(0.015625)"/>
      </defs>
      <use xlink:href="#DejaVuSans-62"/>
      <use xlink:href="#DejaVuSans-61" x="63.476562"/>
      <use xlink:href="#DejaVuSans-6c" x="124.755859"/>
      <use xlink:href="#DejaVuSans-6c" x="152.539062"/>
     </g>
    </g>
   </g>
   <g id="matplotlib.axis_2">
    <g id="ytick_1">
     <g id="line2d_6">
      <path d="M 53.66 249.136364 
L 745.2 249.136364 
" clip-path="url(#pff4b14269e)" style="fill: none; stroke: #eeeeee; stroke-width: 0.8; stroke-linecap: square"/>
     </g>
     <g id="line2d_7">
      <defs>
       <path id="mbe43b6803f" d="M 0 0 
L -3.5 0 
" style="stroke: #000000; stroke-width: 0.8"/>
      </defs>
      <g>
       <use xlink:href="#mbe43b6803f" x="53.66" y="249.136364" style="stroke: #000000; stroke-width: 0.8"/>
      </g>
     </g>
     <g id="text_7">
      <!-- −15 -->
      <g transform="translate(25.555313 252.935582) scale(0.1 -0.1)">
       <defs>
        <path id="DejaVuSans-2212" d="M 678 2272 
L 4684 2272 
L 4684 1741 
L 678 1741 
L 678 2272 
z
" transform="scale(0.015625)"/>
        <path id="DejaVuSans-35" d="M 691 4666 
L 3169 4666 
L 3169 4134 
L 1269 4134 
L 1269 2991 
Q 1406 3038 1543 3061 
Q 1681 3084 1819 3084 
Q 2600 3084 3056 2656 
Q 3513 2228 3513 1497 
Q 3513 744 3044 326 
Q 2575 -91 1722 -91 
Q 1428 -91 1123 -41 
Q 819 9 494 109 
L 494 744 
Q 775 591 1075 516 
Q 1375 441 1709 441 
Q 2250 441 2565 725 
Q 2881 1009 2881 1497 
Q 2881 1984 2565 2268 
Q 2250 2553 1709 2553 
Q 1456 2553 1204 2497 
Q 953 2441 691 2322 
L 691 4666 
z
" transform="scale(0.015625)"/>
       </defs>
       <use xlink:href="#DejaVuSans-2212"/>
       <use xlink:href="#DejaVuSans-31" x="83.789062"/>
       <use xlink:href="#DejaVuSans-35" x="147.412109"/>
      </g>
     </g>
    </g>
    <g id="ytick_2">
     <g id="line2d_8">
      <path d="M 53.66 209.93771 
L 745.2 209.93771 
" clip-path="url(#pff4b14269e)" style="fill: none; stroke: #eeeeee; stroke-width: 0.8; stroke-linecap: square"/>
     </g>
     <g id="line2d_9">
      <g>
       <use xlink:href="#mbe43b6803f" x="53.66" y="209.93771" style="stroke: #000000; stroke-width: 0.8"/>
      </g>
     </g>
     <g id="text_8">
      <!-- −10 -->
      <g transform="translate(25.555313 213.736929) scale(0.1 -0.1)">
       <use xlink:href="#DejaVuSans-2212"/>
       <use xlink:href="#DejaVuSans-31" x="83.789062"/>
       <use xlink:href="#DejaVuSans-30" x="147.412109"/>
      </g>
     </g>
    </g>
    <g id="ytick_3">
     <g id="line2d_10">
      <path d="M 53.66 170.739057 
L 745.2 170.739057 
" clip-path="url(#pff4b14269e)" style="fill: none; stroke: #eeeeee; stroke-width: 0.8; stroke-linecap: square"/>
     </g>
     <g id="line2d_11">
      <g>
       <use xlink:href="#mbe43b6803f" x="53.66" y="170.739057" style="stroke: #000000; stroke-width: 0.8"/>
      </g>
     </g>
     <g id="text_9">
      <!-- −5 -->
      <g transform="translate(31.917813 174.538276) scale(0.1 -0.1)">
       <use xlink:href="#DejaVuSans-2212"/>
       <use xlink:href="#DejaVuSans-35" x="83.789062"/>
      </g>
     </g>
    </g>
    <g id="ytick_4">
     <g id="line2d_12">
      <path d="M 53.66 131.540404 
L 745.2 131.540404 
" clip-path="url(#pff4b14269e)" style="fill: none; stroke: #eeeeee; stroke-width: 0.8; stroke-linecap: square"/>
     </g>
     <g id="line2d_13">
      <g>
       <use xlink:href="#mbe43b6803f" x="53.66" y="131.540404" style="stroke: #000000; stroke-width: 0.8"/>
      </g>
     </g>
     <g id="text_10">
      <!-- 0 -->
      <g transform="translate(40.2975 135.339623) scale(0.1 -0.1)">
       <use xlink:href="#DejaVuSans-30"/>
      </g>
     </g>
    </g>
    <g id="ytick_5">
     <g id="line2d_14">
      <path d="M 53.66 92.341751 
L 745.2 92.341751 
" clip-path="url(#pff4b14269e)" style="fill: none; stroke: #eeeeee; stroke-width: 0.8; stroke-linecap: square"/>
     </g>
     <g id="line2d_15">
      <g>
       <use xlink:href="#mbe43b6803f" x="53.66" y="92.341751" style="stroke: #000000; stroke-width: 0.8"/>
      </g>
     </g>
     <g id="text_11">
      <!-- 5 -->
      <g transform="translate(40.2975 96.14097) scale(0.1 -0.1)">
       <use xlink:href="#DejaVuSans-35"/>
      </g>
     </g>
    </g>
    <g id="ytick_6">
     <g id="line2d_16">
      <path d="M 53.66 53.143098 
L 745.2 53.143098 
" clip-path="url(#pff4b14269e)" style="fill: none; stroke: #eeeeee; stroke-width: 0.8; stroke-linecap: square"/>
     </g>
     <g id="line2d_17">
      <g>
       <use xlink:href="#mbe43b6803f" x="53.66" y="53.143098" style="stroke: #000000; stroke-width: 0.8"/>
      </g>
     </g>
     <g id="text_12">
      <!-- 10 -->
      <g transform="translate(33.935 56.942316) scale(0.1 -0.1)">
       <use xlink:href="#DejaVuSans-31"/>
       <use xlink:href="#DejaVuSans-30" x="63.623047"/>
      </g>
     </g>
    </g>
    <g id="text_13">
     <!-- count difference -->
     <g transform="translate(19.267656 188.256484) rotate(-90) scale(0.11 -0.11)">
      <defs>
       <path id="DejaVuSans-63" d="M 3122 3366 
L 3122 2828 
Q 2878 2963 2633 3030 
Q 2388 3097 2138 3097 
Q 1578 3097 1268 2742 
Q 959 2388 959 1747 
Q 959 1106 1268 751 
Q 1578 397 2138 397 
Q 2388 397 2633 464 
Q 2878 531 3122 666 
L 3122 134 
Q 2881 22 2623 -34 
Q 2366 -91 2075 -91 
Q 1284 -91 818 406 
Q 353 903 353 1747 
Q 353 2603 823 3093 
Q 1294 3584 2113 3584 
Q 2378 3584 2631 3529 
Q 2884 3475 3122 3366 
z
" transform="scale(0.015625)"/>
       <path id="DejaVuSans-6f" d="M 1959 3097 
Q 1497 3097 1228 2736 
Q 959 2375 959 1747 
Q 959 1119 1226 758 
Q 1494 397 1959 397 
Q 2419 397 2687 759 
Q 2956 1122 2956 1747 
Q 2956 2369 2687 2733 
Q 2419 3097 1959 3097 
z
M 1959 3584 
Q 2709 3584 3137 3096 
Q 3566 2609 3566 1747 
Q 3566 888 3137 398 
Q 2709 -91 1959 -91 
Q 1206 -91 779 398 
Q 353 888 353 1747 
Q 353 2609 779 3096 
Q 1206 3584 1959 3584 
z
" transform="scale(0.015625)"/>
       <path id="DejaVuSans-75" d="M 544 1381 
L 544 3500 
L 1119 3500 
L 1119 1403 
Q 1119 906 1312 657 
Q 1506 409 1894 409 
Q 2359 409 2629 706 
Q 2900 1003 2900 1516 
L 2900 3500 
L 3475 3500 
L 3475 0 
L 2900 0 
L 2900 538 
Q 2691 219 2414 64 
Q 2138 -91 1772 -91 
Q 1169 -91 856 284 
Q 544 659 544 1381 
z
M 1991 3584 
L 1991 3584 
z
" transform="scale(0.015625)"/>
       <path id="DejaVuSans-6e" d="M 3513 2113 
L 3513 0 
L 2938 0 
L 2938 2094 
Q 2938 2591 2744 2837 
Q 2550 3084 2163 3084 
Q 1697 3084 1428 2787 
Q 1159 2491 1159 1978 
L 1159 0 
L 581 0 
L 581 3500 
L 1159 3500 
L 1159 2956 
Q 1366 3272 1645 3428 
Q 1925 3584 2291 3584 
Q 2894 3584 3203 3211 
Q 3513 2838 3513 2113 
z
" transform="scale(0.015625)"/>
       <path id="DejaVuSans-74" d="M 1172 4494 
L 1172 3500 
L 2356 3500 
L 2356 3053 
L 1172 3053 
L 1172 1153 
Q 1172 725 1289 603 
Q 1406 481 1766 481 
L 2356 481 
L 2356 0 
L 1766 0 
Q 1100 0 847 248 
Q 594 497 594 1153 
L 594 3053 
L 172 3053 
L 172 3500 
L 594 3500 
L 594 4494 
L 1172 4494 
z
" transform="scale(0.015625)"/>
       <path id="DejaVuSans-20" transform="scale(0.015625)"/>
       <path id="DejaVuSans-64" d="M 2906 2969 
L 2906 4863 
L 3481 4863 
L 3481 0 
L 2906 0 
L 2906 525 
Q 2725 213 2448 61 
Q 2172 -91 1784 -91 
Q 1150 -91 751 415 
Q 353 922 353 1747 
Q 353 2572 751 3078 
Q 1150 3584 1784 3584 
Q 2172 3584 2448 3432 
Q 2725 3281 2906 2969 
z
M 947 1747 
Q 947 1113 1208 752 
Q 1469 391 1925 391 
Q 2381 391 2643 752 
Q 2906 1113 2906 1747 
Q 2906 2381 2643 2742 
Q 2381 3103 1925 3103 
Q 1469 3103 1208 2742 
Q 947 2381 947 1747 
z
" transform="scale(0.015625)"/>
       <path id="DejaVuSans-69" d="M 603 3500 
L 1178 3500 
L 1178 0 
L 603 0 
L 603 3500 
z
M 603 4863 
L 1178 4863 
L 1178 4134 
L 603 4134 
L 603 4863 
z
" transform="scale(0.015625)"/>
       <path id="DejaVuSans-66" d="M 2375 4863 
L 2375 4384 
L 1825 4384 
Q 1516 4384 1395 4259 
Q 1275 4134 1275 3809 
L 1275 3500 
L 2222 3500 
L 2222 3053 
L 1275 3053 
L 1275 0 
L 697 0 
L 697 3053 
L 147 3053 
L 147 3500 
L 697 3500 
L 697 3744 
Q 697 4328 969 4595 
Q 1241 4863 1831 4863 
L 2375 4863 
z
" transform="scale(0.015625)"/>
       <path id="DejaVuSans-65" d="M 3597 1894 
L 3597 1613 
L 953 1613 
Q 991 1019 1311 708 
Q 1631 397 2203 397 
Q 2534 397 2845 478 
Q 3156 559 3463 722 
L 3463 178 
Q 3153 47 2828 -22 
Q 2503 -91 2169 -91 
Q 1331 -91 842 396 
Q 353 884 353 1716 
Q 353 2575 817 3079 
Q 1281 3584 2069 3584 
Q 2775 3584 3186 3129 
Q 3597 2675 3597 1894 
z
M 3022 2063 
Q 3016 2534 2758 2815 
Q 2500 3097 2075 3097 
Q 1594 3097 1305 2825 
Q 1016 2553 972 2059 
L 3022 2063 
z
" transform="scale(0.015625)"/>
       <path id="DejaVuSans-72" d="M 2631 2963 
Q 2534 3019 2420 3045 
Q 2306 3072 2169 3072 
Q 1681 3072 1420 2755 
Q 1159 2438 1159 1844 
L 1159 0 
L 581 0 
L 581 3500 
L 1159 3500 
L 1159 2956 
Q 1341 3275 1631 3429 
Q 1922 3584 2338 3584 
Q 2397 3584 2469 3576 
Q 2541 3569 2628 3553 
L 2631 2963 
z
" transform="scale(0.015625)"/>
      </defs>
      <use xlink:href="#DejaVuSans-63"/>
      <use xlink:href="#DejaVuSans-6f" x="54.980469"/>
      <use xlink:href="#DejaVuSans-75" x="116.162109"/>
      <use xlink:href="#DejaVuSans-6e" x="179.541016"/>
      <use xlink:href="#DejaVuSans-74" x="242.919922"/>
      <use xlink:href="#DejaVuSans-20" x="282.128906"/>
      <use xlink:href="#DejaVuSans-64" x="313.916016"/>
      <use xlink:href="#DejaVuSans-69" x="377.392578"/>
      <use xlink:href="#DejaVuSans-66" x="405.175781"/>
      <use xlink:href="#DejaVuSans-66" x="440.380859"/>
      <use xlink:href="#DejaVuSans-65" x="475.585938"/>
      <use xlink:href="#DejaVuSans-72" x="537.109375"/>
      <use xlink:href="#DejaVuSans-65" x="575.972656"/>
      <use xlink:href="#DejaVuSans-6e" x="637.496094"/>
      <use xlink:href="#DejaVuSans-63" x="700.875"/>
      <use xlink:href="#DejaVuSans-65" x="755.855469"/>
     </g>
    </g>
   </g>
   <g id="line2d_18">
    <path d="M 53.66 131.540404 
L 745.2 131.540404 
" clip-path="url(#pff4b14269e)" style="fill: none; stroke: #111111; stroke-opacity: 0.6; stroke-linecap: square"/>
   </g>
   <g id="patch_45">
    <path d="M 53.66 259.72 
L 53.66 26.88 
" style="fill: none; stroke: #000000; stroke-width: 0.8; stroke-linejoin: miter; stroke-linecap: square"/>
   </g>
   <g id="patch_46">
    <path d="M 745.2 259.72 
L 745.2 26.88 
" style="fill: none; stroke: #000000; stroke-width: 0.8; stroke-linejoin: miter; stroke-linecap: square"/>
   </g>
   <g id="patch_47">
    <path d="M 53.66 259.72 
L 745.2 259.72 
" style="fill: none; stroke: #000000; stroke-width: 0.8; stroke-linejoin: miter; stroke-linecap: square"/>
   </g>
   <g id="patch_48">
    <path d="M 53.66 26.88 
L 745.2 26.88 
" style="fill: none; stroke: #000000; stroke-width: 0.8; stroke-linejoin: miter; stroke-linecap: square"/>
   </g>
   <g id="text_14">
    <!-- Frequency drift: late − early (n=100 vs 100) -->
    <g transform="translate(255.0975 20.88) scale(0.13 -0.13)">
     <defs>
      <path id="DejaVuSans-46" d="M 628 4666 
L 3309 4666 
L 3309 4134 
L 1259 4134 
L 1259 2759 
L 3109 2759 
L 3109 2228 
L 1259 2228 
L 1259 0 
L 628 0 
L 628 4666 
z
" transform="scale(0.015625)"/>
      <path id="DejaVuSans-71" d="M 947 1747 
Q 947 1113 1208 752 
Q 1469 391 1925 391 
Q 2381 391 2643 752 
Q 2906 1113 2906 1747 
Q 2906 2381 2643 2742 
Q 2381 3103 1925 3103 
Q 1469 3103 1208 2742 
Q 947 2381 947 1747 
z
M 2906 525 
Q 2725 213 2448 61 
Q 2172 -91 1784 -91 
Q 1150 -91 751 415 
Q 353 922 353 1747 
Q 353 2572 751 3078 
Q 1150 3584 1784 3584 
Q 2172 3584 2448 3432 
Q 2725 3281 2906 2969 
L 2906 3500 
L 3481 3500 
L 3481 -1331 
L 2906 -1331 
L 2906 525 
z
" transform="scale(0.015625)"/>
      <path id="DejaVuSans-79" d="M 2059 -325 
Q 1816 -950 1584 -1140 
Q 1353 -1331 966 -1331 
L 506 -1331 
L 506 -850 
L 844 -850 
Q 1081 -850 1212 -737 
Q 1344 -625 1503 -206 
L 1606 56 
L 191 3500 
L 800 3500 
L 1894 763 
L 2988 3500 
L 3597 3500 
L 2059 -325 
z
" transform="scale(0.015625)"/>
      <path id="DejaVuSans-3a" d="M 750 794 
L 1409 794 
L 1409 0 
L 750 0 
L 750 794 
z
M 750 3309 
L 1409 3309 
L 1409 2516 
L 750 2516 
L 750 3309 
z
" transform="scale(0.015625)"/>
      <path id="DejaVuSans-28" d="M 1984 4856 
Q 1566 4138 1362 3434 
Q 1159 2731 1159 2009 
Q 1159 1288 1364 580 
Q 1569 -128 1984 -844 
L 1484 -844 
Q 1016 -109 783 600 
Q 550 1309 550 2009 
Q 550 2706 781 3412 
Q 1013 4119 1484 4856 
L 1984 4856 
z
" transform="scale(0.015625)"/>
      <path id="DejaVuSans-3d" d="M 678 2906 
L 4684 2906 
L 4684 2381 
L 678 2381 
L 678 2906 
z
M 678 1631 
L 4684 1631 
L 4684 1100 
L 678 1100 
L 678 1631 
z
" transform="scale(0.015625)"/>
      <path id="DejaVuSans-76" d="M 191 3500 
L 800 3500 
L 1894 563 
L 2988 3500 
L 3597 3500 
L 2284 0 
L 1503 0 
L 191 3500 
z
" transform="scale(0.015625)"/>
      <path id="DejaVuSans-73" d="M 2834 3397 
L 2834 2853 
Q 2591 2978 2328 3040 
Q 2066 3103 1784 3103 
Q 1356 3103 1142 2972 
Q 928 2841 928 2578 
Q 928 2378 1081 2264 
Q 1234 2150 1697 2047 
L 1894 2003 
Q 2506 1872 2764 1633 
Q 3022 1394 3022 966 
Q 3022 478 2636 193 
Q 2250 -91 1575 -91 
Q 1294 -91 989 -36 
Q 684 19 347 128 
L 347 722 
Q 666 556 975 473 
Q 1284 391 1588 391 
Q 1994 391 2212 530 
Q 2431 669 2431 922 
Q 2431 1156 2273 1281 
Q 2116 1406 1581 1522 
L 1381 1569 
Q 847 1681 609 1914 
Q 372 2147 372 2553 
Q 372 3047 722 3315 
Q 1072 3584 1716 3584 
Q 2034 3584 2315 3537 
Q 2597 3491 2834 3397 
z
" transform="scale(0.015625)"/>
      <path id="DejaVuSans-29" d="M 513 4856 
L 1013 4856 
Q 1481 4119 1714 3412 
Q 1947 2706 1947 2009 
Q 1947 1309 1714 600 
Q 1481 -109 1013 -844 
L 513 -844 
Q 928 -128 1133 580 
Q 1338 1288 1338 2009 
Q 1338 2731 1133 3434 
Q 928 4138 513 4856 
z
" transform="scale(0.015625)"/>
     </defs>
     <use xlink:href="#DejaVuSans-46"/>
     <use xlink:href="#DejaVuSans-72" x="50.269531"/>
     <use xlink:href="#DejaVuSans-65" x="89.132812"/>
     <use xlink:href="#DejaVuSans-71" x="150.65625"/>
     <use xlink:href="#DejaVuSans-75" x="214.132812"/>
     <use xlink:href="#DejaVuSans-65" x="277.511719"/>
     <use xlink:href="#DejaVuSans-6e" x="339.035156"/>
     <use xlink:href="#DejaVuSans-63" x="402.414062"/>
     <use xlink:href="#DejaVuSans-79" x="457.394531"/>
     <use xlink:href="#DejaVuSans-20" x="516.574219"/>
     <use xlink:href="#DejaVuSans-64" x="548.361328"/>
     <use xlink:href="#DejaVuSans-72" x="611.837891"/>
     <use xlink:href="#DejaVuSans-69" x="652.951172"/>
     <use xlink:href="#DejaVuSans-66" x="680.734375"/>
     <use xlink:href="#DejaVuSans-74" x="714.189453"/>
     <use xlink:href="#DejaVuSans-3a" x="753.398438"/>
     <use xlink:href="#DejaVuSans-20" x="787.089844"/>
     <use xlink:href="#DejaVuSans-6c" x="818.876953"/>
     <use xlink:href="#DejaVuSans-61" x="846.660156"/>
     <use xlink:href="#DejaVuSans-74" x="907.939453"/>
     <use xlink:href="#DejaVuSans-65" x="947.148438"/>
     <use xlink:href="#DejaVuSans-20" x="1008.671875"/>
     <use xlink:href="#DejaVuSans-2212" x="1040.458984"/>
     <use xlink:href="#DejaVuSans-20" x="1124.248047"/>
     <use xlink:href="#DejaVuSans-65" x="1156.035156"/>
     <use xlink:href="#DejaVuSans-61" x="1217.558594"/>
     <use xlink:href="#DejaVuSans-72" x="1278.837891"/>
     <use xlink:href="#DejaVuSans-6c" x="1319.951172"/>
     <use xlink:href="#DejaVuSans-79" x="1347.734375"/>
     <use xlink:href="#DejaVuSans-20" x="1406.914062"/>
     <use xlink:href="#DejaVuSans-28" x="1438.701172"/>
     <use xlink:href="#DejaVuSans-6e" x="1477.714844"/>
     <use xlink:href="#DejaVuSans-3d" x="1541.09375"/>
     <use xlink:href="#DejaVuSans-31" x="1624.882812"/>
     <use xlink:href="#DejaVuSans-30" x="1688.505859"/>
     <use xlink:href="#DejaVuSans-30" x="1752.128906"/>
     <use xlink:href="#DejaVuSans-20" x="1815.751953"/>
     <use xlink:href="#DejaVuSans-76" x="1847.539062"/>
     <use xlink:href="#DejaVuSans-73" x="1906.71875"/>
     <use xlink:href="#DejaVuSans-20" x="1958.818359"/>
     <use xlink:href="#DejaVuSans-31" x="1990.605469"/>
     <use xlink:href="#DejaVuSans-30" x="2054.228516"/>
     <use xlink:href="#DejaVuSans-30" x="2117.851562"/>
     <use xlink:href="#DejaVuSans-29" x="2181.474609"/>
    </g>
   </g>
  </g>
 </g>
 <defs>
  <clipPath id="pff4b14269e">
   <rect x="53.66" y="26.88" width="691.54" height="232.84"/>
  </clipPath>
 </defs>
</svg>
