<svg xmlns="http://www.w3.org/2000/svg" width="900" height="420" viewBox="0 0 900 420">
<rect x="0" y="0" width="100%" height="100%" fill="#ffffff"/>
<style>text{font-family: ui-sans-serif, system-ui, -apple-system, Segoe UI, Roboto, Helvetica, Arial; fill:#111}</style>
<defs>
  <marker id="arrowhead" markerWidth="10" markerHeight="7" refX="9" refY="3.5" orient="auto">
    <polygon points="0 0, 10 3.5, 0 7" fill="#333" />
  </marker>
</defs>
<text x="450.0" y="28" text-anchor="middle" font-size="16">Fair lottery: chi-square p-values should look uniform</text>
<line x1="70" y1="360" x2="880" y2="360" stroke="#333"/>
<line x1="70" y1="55" x2="70" y2="360" stroke="#333"/>
<rect x="70" y="322.805" width="39.5" height="37.195" fill="#41b6c4" opacity="0.9"/>
<rect x="110.5" y="315.366" width="39.5" height="44.634" fill="#41b6c4" opacity="0.9"/>
<rect x="151" y="307.927" width="39.5" height="52.073" fill="#41b6c4" opacity="0.9"/>
<rect x="191.5" y="300.488" width="39.5" height="59.512" fill="#41b6c4" opacity="0.9"/>
<rect x="232" y="300.488" width="39.5" height="59.512" fill="#41b6c4" opacity="0.9"/>
<rect x="272.5" y="300.488" width="39.5" height="59.512" fill="#41b6c4" opacity="0.9"/>
<rect x="313" y="307.927" width="39.5" height="52.073" fill="#41b6c4" opacity="0.9"/>
<rect x="353.5" y="300.488" width="39.5" height="59.512" fill="#41b6c4" opacity="0.9"/>
<rect x="394" y="285.61" width="39.5" height="74.39" fill="#41b6c4" opacity="0.9"/>
<rect x="434.5" y="293.049" width="39.5" height="66.951" fill="#41b6c4" opacity="0.9"/>
<rect x="475" y="278.171" width="39.5" height="81.829" fill="#41b6c4" opacity="0.9"/>
<rect x="515.5" y="270.732" width="39.5" height="89.268" fill="#41b6c4" opacity="0.9"/>
<rect x="556" y="278.171" width="39.5" height="81.829" fill="#41b6c4" opacity="0.9"/>
<rect x="596.5" y="196.341" width="39.5" height="163.659" fill="#41b6c4" opacity="0.9"/>
<rect x="637" y="203.78" width="39.5" height="156.22" fill="#41b6c4" opacity="0.9"/>
<rect x="677.5" y="255.854" width="39.5" height="104.146" fill="#41b6c4" opacity="0.9"/>
<rect x="718" y="136.829" width="39.5" height="223.171" fill="#41b6c4" opacity="0.9"/>
<rect x="758.5" y="188.902" width="39.5" height="171.098" fill="#41b6c4" opacity="0.9"/>
<rect x="799" y="55" width="39.5" height="305" fill="#41b6c4" opacity="0.9"/>
<rect x="839.5" y="69.878" width="39.5" height="290.122" fill="#41b6c4" opacity="0.9"/>
<text x="450.0" y="400" text-anchor="middle" font-size="12" fill="#333">p-value</text>
<text x="18" y="210.0" text-anchor="middle" font-size="12" fill="#333" transform="rotate(-90 18 210.0)">experiments</text>
</svg>
