<svg xmlns="http://www.w3.org/2000/svg" width="820" height="520" viewBox="0 0 820 520">
<rect x="0" y="0" width="100%" height="100%" fill="#ffffff"/>
<style>text{font-family: ui-sans-serif, system-ui, -apple-system, Segoe UI, Roboto, Helvetica, Arial; fill:#111}</style>
<defs>
  <marker id="arrowhead" markerWidth="10" markerHeight="7" refX="9" refY="3.5" orient="auto">
    <polygon points="0 0, 10 3.5, 0 7" fill="#333" />
  </marker>
</defs>
<text x="410.0" y="28" text-anchor="middle" font-size="16">Prosody proxy: log10 duration percentiles by phoneme class (synthetic)</text>
<rect x="80" y="55" width="710" height="405" fill="none" stroke="#333"/>
<rect x="80" y="55" width="142" height="81" fill="rgb(48,106,139)"/>
<rect x="222" y="55" width="142" height="81" fill="rgb(37,133,139)"/>
<rect x="364" y="55" width="142" height="81" fill="rgb(51,161,127)"/>
<rect x="506" y="55" width="142" height="81" fill="rgb(83,191,105)"/>
<rect x="648" y="55" width="142" height="81" fill="rgb(136,209,81)"/>
<rect x="80" y="136" width="142" height="81" fill="rgb(68,1,84)"/>
<rect x="222" y="136" width="142" height="81" fill="rgb(64,34,106)"/>
<rect x="364" y="136" width="142" height="81" fill="rgb(60,72,132)"/>
<rect x="506" y="136" width="142" height="81" fill="rgb(49,105,139)"/>
<rect x="648" y="136" width="142" height="81" fill="rgb(37,134,139)"/>
<rect x="80" y="217" width="142" height="81" fill="rgb(59,74,134)"/>
<rect x="222" y="217" width="142" height="81" fill="rgb(51,100,139)"/>
<rect x="364" y="217" width="142" height="81" fill="rgb(38,132,139)"/>
<rect x="506" y="217" width="142" height="81" fill="rgb(48,159,129)"/>
<rect x="648" y="217" width="142" height="81" fill="rgb(76,184,110)"/>
<rect x="80" y="298" width="142" height="81" fill="rgb(60,69,130)"/>
<rect x="222" y="298" width="142" height="81" fill="rgb(52,96,139)"/>
<rect x="364" y="298" width="142" height="81" fill="rgb(41,123,139)"/>
<rect x="506" y="298" width="142" height="81" fill="rgb(38,149,136)"/>
<rect x="648" y="298" width="142" height="81" fill="rgb(60,170,121)"/>
<rect x="80" y="379" width="142" height="81" fill="rgb(35,139,139)"/>
<rect x="222" y="379" width="142" height="81" fill="rgb(56,166,123)"/>
<rect x="364" y="379" width="142" height="81" fill="rgb(91,198,99)"/>
<rect x="506" y="379" width="142" height="81" fill="rgb(170,215,68)"/>
<rect x="648" y="379" width="142" height="81" fill="rgb(252,230,37)"/>
<text x="151" y="478" text-anchor="middle" font-size="10" fill="#444">0</text>
<text x="435" y="478" text-anchor="middle" font-size="10" fill="#444">2</text>
<text x="719" y="478" text-anchor="middle" font-size="10" fill="#444">4</text>
<text x="72" y="98.5" text-anchor="end" font-size="10" fill="#444">0</text>
<text x="72" y="260.5" text-anchor="end" font-size="10" fill="#444">2</text>
<text x="72" y="422.5" text-anchor="end" font-size="10" fill="#444">4</text>
<text x="410.0" y="500" text-anchor="middle" font-size="12" fill="#333">key token</text>
<text x="18" y="260.0" text-anchor="middle" font-size="12" fill="#333" transform="rotate(-90 18 260.0)">query token</text>
</svg>
