<svg xmlns="http://www.w3.org/2000/svg" width="900" height="420" viewBox="0 0 900 420">
<rect x="0" y="0" width="100%" height="100%" fill="#ffffff"/>
<style>text{font-family: ui-sans-serif, system-ui, -apple-system, Segoe UI, Roboto, Helvetica, Arial; fill:#111}</style>
<defs>
  <marker id="arrowhead" markerWidth="10" markerHeight="7" refX="9" refY="3.5" orient="auto">
    <polygon points="0 0, 10 3.5, 0 7" fill="#333" />
  </marker>
</defs>
<text x="450.0" y="28" text-anchor="middle" font-size="16">API call latency quantiles (real measurements)</text>
<line x1="70" y1="360" x2="880" y2="360" stroke="#333"/>
<line x1="70" y1="55" x2="70" y2="360" stroke="#333"/>
<line x1="70" y1="55" x2="880" y2="55" stroke="#eee"/>
<text x="62" y="59" text-anchor="end" font-size="11" fill="#444">2079.028</text>
<line x1="70" y1="116" x2="880" y2="116" stroke="#eee"/>
<text x="62" y="120" text-anchor="end" font-size="11" fill="#444">1871.244</text>
<line x1="70" y1="177" x2="880" y2="177" stroke="#eee"/>
<text x="62" y="181" text-anchor="end" font-size="11" fill="#444">1663.459</text>
<line x1="70" y1="238" x2="880" y2="238" stroke="#eee"/>
<text x="62" y="242" text-anchor="end" font-size="11" fill="#444">1455.675</text>
<line x1="70" y1="299" x2="880" y2="299" stroke="#eee"/>
<text x="62" y="303" text-anchor="end" font-size="11" fill="#444">1247.89</text>
<line x1="70" y1="360" x2="880" y2="360" stroke="#eee"/>
<text x="62" y="364" text-anchor="end" font-size="11" fill="#444">1040.106</text>
<line x1="70" y1="55" x2="70" y2="360" stroke="#f3f3f3"/>
<text x="70" y="378" text-anchor="middle" font-size="11" fill="#444">0.05</text>
<line x1="232" y1="55" x2="232" y2="360" stroke="#f3f3f3"/>
<text x="232" y="378" text-anchor="middle" font-size="11" fill="#444">0.23</text>
<line x1="394" y1="55" x2="394" y2="360" stroke="#f3f3f3"/>
<text x="394" y="378" text-anchor="middle" font-size="11" fill="#444">0.41</text>
<line x1="556" y1="55" x2="556" y2="360" stroke="#f3f3f3"/>
<text x="556" y="378" text-anchor="middle" font-size="11" fill="#444">0.59</text>
<line x1="718" y1="55" x2="718" y2="360" stroke="#f3f3f3"/>
<text x="718" y="378" text-anchor="middle" font-size="11" fill="#444">0.77</text>
<line x1="880" y1="55" x2="880" y2="360" stroke="#f3f3f3"/>
<text x="880" y="378" text-anchor="middle" font-size="11" fill="#444">0.95</text>
<text x="450.0" y="400" text-anchor="middle" font-size="12" fill="#333">quantile q</text>
<text x="18" y="210.0" text-anchor="middle" font-size="12" fill="#333" transform="rotate(-90 18 210.0)">ms at quantile</text>
<polyline points="70,360 83.729,356.891 97.458,353.781 111.186,350.623 124.915,347.453 138.644,344.454 152.373,343.328 166.102,342.201 179.831,339.998 193.559,335.809 207.288,331.621 221.017,329.724 234.746,329.23 248.475,328.735 262.203,327.137 275.932,325.4 289.661,323.499 303.39,320.722 317.119,317.945 330.847,315.08 344.576,312.097 358.305,309.115 372.034,307.357 385.763,306.138 399.492,304.92 413.22,304.818 426.949,304.758 440.678,304.433 454.407,303.223 468.136,302.013 481.864,301.353 495.593,301.243 509.322,301.133 523.051,300.153 536.78,298.911 550.508,297.632 564.237,295.419 577.966,293.206 591.695,289.372 605.424,281.854 619.153,274.336 632.881,271.107 646.61,271.06 660.339,271.012 674.068,270.417 687.797,269.72 701.525,269.069 715.254,268.798 728.983,268.526 742.712,266.874 756.441,262.968 770.169,259.063 783.898,247.507 797.627,231.798 811.356,216.089 825.085,211.145 838.814,207.18 852.542,191.327 866.271,123.163 880,55" fill="none" stroke="#2c7fb8" stroke-width="2"/>
<polyline points="70,358.216 83.729,353.615 97.458,349.014 111.186,346.819 124.915,345.172 138.644,343.302 152.373,338.987 166.102,334.671 179.831,331.574 193.559,330.719 207.288,329.865 221.017,329.375 234.746,329.107 248.475,328.839 262.203,327.016 275.932,324.999 289.661,323.259 303.39,323.002 317.119,322.745 330.847,322.098 344.576,320.926 358.305,319.753 372.034,316.07 385.763,311.283 399.492,306.496 413.22,303.686 426.949,300.952 440.678,298.806 454.407,298.612 468.136,298.419 481.864,296.503 495.593,292.865 509.322,289.227 523.051,288.329 536.78,288.257 550.508,288.083 564.237,285.25 577.966,282.417 591.695,279.555 605.424,276.628 619.153,273.702 632.881,272.242 646.61,271.872 660.339,271.501 674.068,270.893 687.797,270.24 701.525,269.564 715.254,268.694 728.983,267.825 742.712,267.182 756.441,266.91 770.169,266.638 783.898,265.302 797.627,263.388 811.356,261.474 825.085,245.655 838.814,228.573 852.542,214.239 866.271,211.998 880,209.757" fill="none" stroke="#41b6c4" stroke-width="2"/>
<polyline points="70,356.373 83.729,345.328 97.458,334.284 111.186,332.175 124.915,332.096 138.644,331.831 152.373,329.514 166.102,327.197 179.831,325.255 193.559,324.005 207.288,322.755 221.017,322.273 234.746,322.261 248.475,322.25 262.203,318.302 275.932,313.862 289.661,309.878 303.39,308.338 317.119,306.798 330.847,305.372 344.576,304.101 358.305,302.829 372.034,302.018 385.763,301.41 399.492,300.802 413.22,300.763 426.949,300.745 440.678,300.599 454.407,300.025 468.136,299.451 481.864,298.365 495.593,296.767 509.322,295.169 523.051,293.516 536.78,291.847 550.508,290.192 564.237,288.903 577.966,287.615 591.695,285.785 605.424,282.726 619.153,279.668 632.881,276.831 646.61,274.159 660.339,271.487 674.068,270.324 687.797,269.443 701.525,268.592 715.254,267.983 728.983,267.375 742.712,263.195 756.441,253.177 770.169,243.159 783.898,233.168 797.627,223.193 811.356,213.218 825.085,211.272 838.814,210.055 852.542,204.179 866.271,177.798 880,151.418" fill="none" stroke="#7fcdbb" stroke-width="2"/>
<line x1="80" y1="65" x2="98" y2="65" stroke="#2c7fb8" stroke-width="3"/>
<text x="104" y="69" font-size="12" fill="#222">t0.2 p(q)</text>
<line x1="80" y1="83" x2="98" y2="83" stroke="#41b6c4" stroke-width="3"/>
<text x="104" y="87" font-size="12" fill="#222">t0.8 p(q)</text>
<line x1="80" y1="101" x2="98" y2="101" stroke="#7fcdbb" stroke-width="3"/>
<text x="104" y="105" font-size="12" fill="#222">t1.2 p(q)</text>
</svg>
