<svg xmlns="http://www.w3.org/2000/svg" width="900" height="420" viewBox="0 0 900 420">
<rect x="0" y="0" width="100%" height="100%" fill="#ffffff"/>
<style>text{font-family: ui-sans-serif, system-ui, -apple-system, Segoe UI, Roboto, Helvetica, Arial; fill:#111}</style>
<defs>
  <marker id="arrowhead" markerWidth="10" markerHeight="7" refX="9" refY="3.5" orient="auto">
    <polygon points="0 0, 10 3.5, 0 7" fill="#333" />
  </marker>
</defs>
<text x="450.0" y="28" text-anchor="middle" font-size="16">Tail ownership: component latency quantiles (synthetic)</text>
<line x1="70" y1="360" x2="880" y2="360" stroke="#333"/>
<line x1="70" y1="55" x2="70" y2="360" stroke="#333"/>
<line x1="70" y1="55" x2="880" y2="55" stroke="#eee"/>
<text x="62" y="59" text-anchor="end" font-size="11" fill="#444">993.657</text>
<line x1="70" y1="116" x2="880" y2="116" stroke="#eee"/>
<text x="62" y="120" text-anchor="end" font-size="11" fill="#444">809.82</text>
<line x1="70" y1="177" x2="880" y2="177" stroke="#eee"/>
<text x="62" y="181" text-anchor="end" font-size="11" fill="#444">625.984</text>
<line x1="70" y1="238" x2="880" y2="238" stroke="#eee"/>
<text x="62" y="242" text-anchor="end" font-size="11" fill="#444">442.147</text>
<line x1="70" y1="299" x2="880" y2="299" stroke="#eee"/>
<text x="62" y="303" text-anchor="end" font-size="11" fill="#444">258.311</text>
<line x1="70" y1="360" x2="880" y2="360" stroke="#eee"/>
<text x="62" y="364" text-anchor="end" font-size="11" fill="#444">74.474</text>
<line x1="70" y1="55" x2="70" y2="360" stroke="#f3f3f3"/>
<text x="70" y="378" text-anchor="middle" font-size="11" fill="#444">0.01</text>
<line x1="232" y1="55" x2="232" y2="360" stroke="#f3f3f3"/>
<text x="232" y="378" text-anchor="middle" font-size="11" fill="#444">0.206</text>
<line x1="394" y1="55" x2="394" y2="360" stroke="#f3f3f3"/>
<text x="394" y="378" text-anchor="middle" font-size="11" fill="#444">0.402</text>
<line x1="556" y1="55" x2="556" y2="360" stroke="#f3f3f3"/>
<text x="556" y="378" text-anchor="middle" font-size="11" fill="#444">0.598</text>
<line x1="718" y1="55" x2="718" y2="360" stroke="#f3f3f3"/>
<text x="718" y="378" text-anchor="middle" font-size="11" fill="#444">0.794</text>
<line x1="880" y1="55" x2="880" y2="360" stroke="#f3f3f3"/>
<text x="880" y="378" text-anchor="middle" font-size="11" fill="#444">0.99</text>
<text x="450.0" y="400" text-anchor="middle" font-size="12" fill="#333">quantile q</text>
<text x="18" y="210.0" text-anchor="middle" font-size="12" fill="#333" transform="rotate(-90 18 210.0)">ms at quantile</text>
<polyline points="70,330.059 80.253,320.328 90.506,316.818 100.759,313.578 111.013,309.25 121.266,305.45 131.519,302.277 141.772,299.981 152.025,297.429 162.278,295.924 172.532,293.747 182.785,291.656 193.038,290.175 203.291,287.589 213.544,285.425 223.797,284.21 234.051,282.974 244.304,279.589 254.557,278.849 264.81,277.737 275.063,276.975 285.316,275.149 295.57,273.788 305.823,272.527 316.076,271.465 326.329,269.039 336.582,267.687 346.835,266.563 357.089,264.776 367.342,263.23 377.595,261.48 387.848,259.632 398.101,258.306 408.354,256.468 418.608,254.679 428.861,253.628 439.114,252.15 449.367,250.789 459.62,249.261 469.873,247.559 480.127,245.468 490.38,243.311 500.633,241.518 510.886,239.787 521.139,238.271 531.392,236.268 541.646,234.345 551.899,232.016 562.152,229.314 572.405,227.86 582.658,226.168 592.911,224.153 603.165,222.307 613.418,220.601 623.671,217.572 633.924,215.512 644.177,213.78 654.43,210.757 664.684,208.38 674.937,205.921 685.19,204.122 695.443,201.097 705.696,197.179 715.949,194.479 726.203,190.682 736.456,187.861 746.709,182.962 756.962,179.341 767.215,175.356 777.468,172.326 787.722,167.154 797.975,158.991 808.228,152.626 818.481,142.038 828.734,132.353 838.987,125.91 849.241,106.222 859.494,90.46 869.747,72.163 880,55" fill="none" stroke="#2c7fb8" stroke-width="2"/>
<polyline points="70,360 80.253,352.74 90.506,349.444 100.759,347.528 111.013,345.501 121.266,343.786 131.519,342.506 141.772,340.686 152.025,338.992 162.278,337.685 172.532,335.495 182.785,334.377 193.038,333.207 203.291,331.71 213.544,329.739 223.797,327.942 234.051,326.935 244.304,325.694 254.557,324.415 264.81,323.602 275.063,322.792 285.316,322.008 295.57,320.808 305.823,319.791 316.076,318.717 326.329,316.812 336.582,315.48 346.835,314.644 357.089,313.256 367.342,312.069 377.595,310.53 387.848,309.319 398.101,307.798 408.354,306.237 418.608,304.906 428.861,303.409 439.114,301.923 449.367,300.933 459.62,299.998 469.873,298.262 480.127,296.924 490.38,295.506 500.633,294.342 510.886,292.343 521.139,290.705 531.392,289.126 541.646,286.996 551.899,285.326 562.152,283.777 572.405,280.84 582.658,278.529 592.911,277.067 603.165,275.354 613.418,273.453 623.671,271.607 633.924,270.028 644.177,267.574 654.43,265.699 664.684,264.092 674.937,262.237 685.19,258.351 695.443,256.449 705.696,254.549 715.949,249.621 726.203,247.245 736.456,243.719 746.709,240.011 756.962,237.188 767.215,233.537 777.468,228.374 787.722,223.396 797.975,214.94 808.228,203.726 818.481,197.51 828.734,186.455 838.987,177.574 849.241,166.083 859.494,145.52 869.747,118.568 880,76.119" fill="none" stroke="#41b6c4" stroke-width="2"/>
<polyline points="70,354.42 80.253,352.344 90.506,350.14 100.759,348.355 111.013,346.984 121.266,345.008 131.519,343.402 141.772,342.125 152.025,341.294 162.278,340.21 172.532,338.97 182.785,337.665 193.038,336.714 203.291,336.005 213.544,334.855 223.797,333.958 234.051,333.062 244.304,332.638 254.557,332.028 264.81,331.014 275.063,330.264 285.316,329.088 295.57,327.804 305.823,326.844 316.076,326.018 326.329,325.074 336.582,324.325 346.835,323.692 357.089,322.387 367.342,321.642 377.595,320.566 387.848,319.24 398.101,318.294 408.354,317.46 418.608,316.757 428.861,315.895 439.114,315.252 449.367,314.526 459.62,313.62 469.873,313.097 480.127,312.103 490.38,310.989 500.633,310.151 510.886,308.892 521.139,308.301 531.392,307.805 541.646,306.645 551.899,305.781 562.152,304.251 572.405,303.12 582.658,302.025 592.911,301.419 603.165,300.272 613.418,299.388 623.671,298.166 633.924,297.445 644.177,296.148 654.43,294.921 664.684,293.229 674.937,292.053 685.19,290.855 695.443,288.241 705.696,287.075 715.949,285.706 726.203,283.568 736.456,282.071 746.709,279.403 756.962,277.131 767.215,274.977 777.468,273.28 787.722,270.82 797.975,266.623 808.228,264.021 818.481,260.128 828.734,255.837 838.987,250.091 849.241,243.881 859.494,232.667 869.747,221.304 880,201.336" fill="none" stroke="#7fcdbb" stroke-width="2"/>
<line x1="80" y1="65" x2="98" y2="65" stroke="#2c7fb8" stroke-width="3"/>
<text x="104" y="69" font-size="12" fill="#222">ASR p(q)</text>
<line x1="80" y1="83" x2="98" y2="83" stroke="#41b6c4" stroke-width="3"/>
<text x="104" y="87" font-size="12" fill="#222">LLM-first-token p(q)</text>
<line x1="80" y1="101" x2="98" y2="101" stroke="#7fcdbb" stroke-width="3"/>
<text x="104" y="105" font-size="12" fill="#222">TTS-first-audio p(q)</text>
</svg>
