<svg xmlns="http://www.w3.org/2000/svg" width="900" height="420" viewBox="0 0 900 420">
<rect x="0" y="0" width="100%" height="100%" fill="#ffffff"/>
<style>text{font-family: ui-sans-serif, system-ui, -apple-system, Segoe UI, Roboto, Helvetica, Arial; fill:#111}</style>
<defs>
  <marker id="arrowhead" markerWidth="10" markerHeight="7" refX="9" refY="3.5" orient="auto">
    <polygon points="0 0, 10 3.5, 0 7" fill="#333" />
  </marker>
</defs>
<text x="450.0" y="28" text-anchor="middle" font-size="16">End-to-first-byte-ish latency (real measurements)</text>
<line x1="70" y1="360" x2="880" y2="360" stroke="#333"/>
<line x1="70" y1="55" x2="70" y2="360" stroke="#333"/>
<rect x="70" y="287.381" width="32.75" height="72.619" fill="#41b6c4" opacity="0.9"/>
<rect x="103.75" y="272.857" width="32.75" height="87.143" fill="#41b6c4" opacity="0.9"/>
<rect x="137.5" y="142.143" width="32.75" height="217.857" fill="#41b6c4" opacity="0.9"/>
<rect x="171.25" y="55" width="32.75" height="305" fill="#41b6c4" opacity="0.9"/>
<rect x="205" y="142.143" width="32.75" height="217.857" fill="#41b6c4" opacity="0.9"/>
<rect x="238.75" y="330.952" width="32.75" height="29.048" fill="#41b6c4" opacity="0.9"/>
<rect x="272.5" y="316.429" width="32.75" height="43.571" fill="#41b6c4" opacity="0.9"/>
<rect x="306.25" y="316.429" width="32.75" height="43.571" fill="#41b6c4" opacity="0.9"/>
<rect x="340" y="360" width="32.75" height="0" fill="#41b6c4" opacity="0.9"/>
<rect x="373.75" y="345.476" width="32.75" height="14.524" fill="#41b6c4" opacity="0.9"/>
<rect x="407.5" y="360" width="32.75" height="0" fill="#41b6c4" opacity="0.9"/>
<rect x="441.25" y="360" width="32.75" height="0" fill="#41b6c4" opacity="0.9"/>
<rect x="475" y="360" width="32.75" height="0" fill="#41b6c4" opacity="0.9"/>
<rect x="508.75" y="360" width="32.75" height="0" fill="#41b6c4" opacity="0.9"/>
<rect x="542.5" y="345.476" width="32.75" height="14.524" fill="#41b6c4" opacity="0.9"/>
<rect x="576.25" y="360" width="32.75" height="0" fill="#41b6c4" opacity="0.9"/>
<rect x="610" y="360" width="32.75" height="0" fill="#41b6c4" opacity="0.9"/>
<rect x="643.75" y="360" width="32.75" height="0" fill="#41b6c4" opacity="0.9"/>
<rect x="677.5" y="360" width="32.75" height="0" fill="#41b6c4" opacity="0.9"/>
<rect x="711.25" y="360" width="32.75" height="0" fill="#41b6c4" opacity="0.9"/>
<rect x="745" y="330.952" width="32.75" height="29.048" fill="#41b6c4" opacity="0.9"/>
<rect x="778.75" y="360" width="32.75" height="0" fill="#41b6c4" opacity="0.9"/>
<rect x="812.5" y="360" width="32.75" height="0" fill="#41b6c4" opacity="0.9"/>
<rect x="846.25" y="345.476" width="32.75" height="14.524" fill="#41b6c4" opacity="0.9"/>
<text x="450.0" y="400" text-anchor="middle" font-size="12" fill="#333">ms</text>
<text x="18" y="210.0" text-anchor="middle" font-size="12" fill="#333" transform="rotate(-90 18 210.0)">requests</text>
</svg>
